<svg viewBox="0 0 163.35 185.74" xmlns="http://www.w3.org/2000/svg" xmlns:xlink="http://www.w3.org/1999/xlink"><clipPath id="a"><path d="m106.48 143.44h36.64v41.27h-36.64z"/></clipPath><path d="m151.57 185.74h-138.94c-.29 0-.54-.11-.54-.24s.25-.23.54-.23h138.94c.3 0 .54.1.54.23s-.24.24-.54.24" fill="#3f3d56"/><path d="m13.14 74.19c.14-.94 1.34-1.54 2.69-1.34s2.34 1.15 2.17 2.06-1.34 1.54-2.69 1.34-2.34-1.12-2.2-2.06" fill="#fff"/><path d="m29.22 72.62c.14-.93 1.35-1.54 2.7-1.34s2.33 1.12 2.2 2.06-1.35 1.54-2.7 1.34-2.33-1.12-2.2-2.06" fill="#3f3d56"/><path d="m8.73 61.17c.14-.94 1.35-1.54 2.7-1.34s2.33 1.11 2.2 2.05-1.35 1.55-2.7 1.35-2.33-1.12-2.2-2.06" fill="#a3c7d1"/><path d="m4.46 56.53c0-.86.5-1.56 1.1-1.55s1.08.71 1.08 1.57-.5 1.56-1.1 1.55-1.08-.7-1.08-1.57" fill="#e6e6e6"/><path d="m2.09 46.6c0-.86.5-1.56 1.1-1.56s1.08.71 1.08 1.58-.5 1.55-1.1 1.55-1.08-.71-1.08-1.57" fill="#3f3d56"/><path d="m20.53 64.08c0-.86.49-1.56 1.09-1.55s1.09.71 1.08 1.57-.5 1.56-1.1 1.55-1.08-.7-1.07-1.57" fill="#ffd712"/><path d="m12.75 68c0-.86.5-1.55 1.1-1.55s1.08.71 1.08 1.57-.5 1.56-1.1 1.55-1.08-.7-1.08-1.57" fill="#a3c7d1"/><path d="m23.57 75.14c0-.87.5-1.56 1.1-1.56s1.08.71 1.08 1.57-.5 1.56-1.1 1.56-1.08-.71-1.08-1.57" fill="#3f3d56"/><path d="m25.89 126.67-1.18-16.27a52.64 52.64 0 0 0 -24.71-5.55c12.05 9.32 11.09 27.94 19.43 40.68a31.67 31.67 0 0 0 23.61 14l10 5.78a53 53 0 0 0 -12.35-42.68 51.33 51.33 0 0 0 -9.65-8.49c-2.2 6.29-5.18 12.54-5.18 12.54" fill="#f2f2f2"/><g clip-path="url(#a)" opacity=".39"><path d="m121.92 149.78a34.7 34.7 0 0 0 -6.59 5.8 36.25 36.25 0 0 0 -8.44 29.14l6.85-3.94a21.63 21.63 0 0 0 16.12-9.56c5.7-8.7 5-21.41 13.26-27.77a35.91 35.91 0 0 0 -16.87 3.79l-.8 11.11s-2-4.27-3.53-8.57" fill="#2d6c83"/></g><path d="m112.83 174.72s10.45-5.85 15.13-16.11" fill="none" stroke="#2d6c83" stroke-miterlimit="10" stroke-width=".5"/><path d="m79.48.29h55.56v97.51h-55.56z" fill="#fff" transform="matrix(.51907165 -.85473073 .85473073 .51907165 9.66 115.27)"/><g fill="#e5e5e5"><path d="m80 0-28.84 47.49 83.35 50.61 28.84-47.49zm54 95.88-80.62-48.88 27.16-44.79 80.59 48.94z"/><path d="m110.83-6.23h1.61v95.63h-1.61z" transform="matrix(.51892246 -.85482131 .85482131 .51892246 18.15 115.42)"/><path d="m99.36 12.66h1.61v95.63h-1.61z" transform="matrix(.51922082 -.85464012 .85464012 .51922082 -3.52 114.69)"/><path d="m61.22 37.16h55.56v1.61h-55.56z" transform="matrix(.51907165 -.85473073 .85473073 .51907165 10.36 94.34)"/><path d="m148.88 41.83-28.83 47.48-1.44-.74 28.9-47.58z"/><path d="m120.69 89.7-.64-.39-1.44-.74-.05-.16-.78-2.36-5.81-17.46-.78-2.37-9.98-30.02-.78-2.36-2.82-8.49-.67-2.01-4.65-13.99-.78-2.36 2.13 1.29.78 2.36 3.62 10.89.67 2.01 3.85 11.59.78 2.36 9.98 30.03.79 2.36 5.6 16.88.2.58.47 1.43z"/></g><path d="m117.47 74.05h-.8v-22a12.74 12.74 0 0 0 -12.74-12.74h-46.62a12.74 12.74 0 0 0 -12.73 12.74v120.72a12.73 12.73 0 0 0 12.73 12.73h46.62a12.73 12.73 0 0 0 12.74-12.73v-83.05h.8z" fill="#26262b"/><path d="m104.45 42.63h-6.09a4.51 4.51 0 0 1 -4.18 6.22h-26.71a4.5 4.5 0 0 1 -4.18-6.22h-5.69a9.51 9.51 0 0 0 -9.51 9.51v120.54a9.51 9.51 0 0 0 9.51 9.51h46.85a9.51 9.51 0 0 0 9.51-9.51v-120.54a9.51 9.51 0 0 0 -9.51-9.51" fill="#fff"/><path d="m70.99 76.4h20.07v4.84h-20.07z" fill="#2d6c83"/><path d="m70.03 97.21h21.98v4.84h-21.98z" fill="#e5e5e5"/><path d="m56.49 107.61h49.06v4.84h-49.06z" fill="#e5e5e5"/><path d="m56.49 118.02h49.06v4.84h-49.06z" fill="#e5e5e5"/><path d="m125.1 35.38a2.22 2.22 0 1 1 -2.23 2.22 2.22 2.22 0 0 1 2.23-2.22" fill="#2d6c83"/><path d="m40.93 126a22.54 22.54 0 1 1 -22.54 22.53 22.54 22.54 0 0 1 22.54-22.53" fill="#fff"/><path d="m42 136.09a7.35 7.35 0 1 1 -7.34 7.35 7.35 7.35 0 0 1 7.34-7.35" fill="#ffb8b8"/><path d="m48.45 138.59s1.91-3.66-2.3-4c0 0-3.59-3.26-7.25-.6a3.67 3.67 0 0 0 -3.08 2.26 1.38 1.38 0 0 0 -1.92 1 10.39 10.39 0 0 0 0 6.32c1.15 3 1.53 3.32 1.53 3.32s-.8-3.71 3.79-4 8.81-3.21 9.19.45.8 2 .8 2 3.64-5.22-.76-6.72" fill="#2f2e41"/><path d="m57.88 163.48a22.53 22.53 0 0 1 -31.53 2.28l1.93-5.39a5.8 5.8 0 0 1 4.93-3.37l1.23-.07 2.93-2.53s7.9-.29 7.79-.42l4.78 2.88 1.88.11a5.82 5.82 0 0 1 4.93 3.39z" fill="#2d6c83"/><path d="m40.93 171.31a22.82 22.82 0 1 1 22.82-22.82 22.82 22.82 0 0 1 -22.82 22.82m0-45.07a22.26 22.26 0 1 0 22.26 22.25 22.25 22.25 0 0 0 -22.26-22.25" fill="#26262b"/><path d="m96.79 150.17h-28.7a2.9 2.9 0 0 1 -2.9-2.9v-17.68a2.9 2.9 0 0 1 2.9-2.9h28.7a2.91 2.91 0 0 1 2.91 2.9v17.68a2.91 2.91 0 0 1 -2.91 2.9" fill="#e6e6e6"/><path d="m85.39 147.89h-15.28a2.71 2.71 0 0 1 -2.72-2.71v-13.5a2.71 2.71 0 0 1 2.72-2.68h24.67a2.71 2.71 0 0 1 2.71 2.71v4.11a12.1 12.1 0 0 1 -12.1 12.1" fill="#fff"/><path d="m92.32 136.36h-19.75a.66.66 0 0 1 -.65-.65.65.65 0 0 1 .65-.64h19.75a.65.65 0 0 1 0 1.29z" fill="#2d6c83"/><path d="m75.66 138.9h-3.09a.65.65 0 1 1 0-1.29h3.09a.65.65 0 0 1 .64.65.64.64 0 0 1 -.64.64z" fill="#2d6c83"/><path d="m81.13 141.45h-8.56a.65.65 0 0 1 -.64-.65.64.64 0 0 1 .64-.64h8.56a.65.65 0 0 1 0 1.29z" fill="#2d6c83"/><path d="m64.19 141.44a6.08 6.08 0 1 1 -6.07 6.07 6.07 6.07 0 0 1 6.07-6.07" fill="#26262b"/><path d="m120.19 78.07a15.78 15.78 0 1 1 -15.77 15.77 15.77 15.77 0 0 1 15.77-15.77" fill="#fff"/><path d="m112.88 88.71a7.1 7.1 0 0 1 4.19-4.71c2.05-.7 5.05.37 6.59 1.91 2.82 2.81 3.51 12.47 1.58 15.52-.39 0-1.72 0-2.11 0l-.55-1.84v1.82h-1.88a8.18 8.18 0 0 1 -8.08-8 18.58 18.58 0 0 1 .26-4.65" fill="#2f2e41"/><path d="m120 86.61a4.5 4.5 0 1 1 -4.5 4.49 4.49 4.49 0 0 1 4.5-4.49" fill="#9e616a"/><path d="m116.08 87.16 5.17-2.6a6.5 6.5 0 0 1 3.81 5.4l.13 1.54-2.19-.5-.24-2-.37 1.82-1-.25v-3.1l-1 3.07-3.57-.82z" fill="#2f2e41"/><path d="m131.9 104.28a15.77 15.77 0 0 1 -22.07 1.6l1.35-3.78a4.05 4.05 0 0 1 3.45-2.37h.86l2.05-1.77s5.53-.2 5.45-.29l3.35 2 1.31.08a4.05 4.05 0 0 1 3.45 2.37z" fill="#2d6c83"/><path d="m120.19 109.81a16 16 0 1 1 16-16 16 16 0 0 1 -16 16m0-31.54a15.58 15.58 0 1 0 15.58 15.57 15.57 15.57 0 0 0 -15.58-15.57" fill="#3f3d56"/><path d="m143.94 126.24h-20.09a2 2 0 0 1 -2-2v-12.41a2 2 0 0 1 2-2h20.09a2 2 0 0 1 2 2v12.37a2 2 0 0 1 -2 2" fill="#e6e6e6"/><path d="m136 124.64h-10.7a1.9 1.9 0 0 1 -1.9-1.9v-9.44a1.9 1.9 0 0 1 1.9-1.9h17.27a1.9 1.9 0 0 1 1.9 1.9v2.87a8.48 8.48 0 0 1 -8.47 8.47" fill="#fff"/><path d="m140.8 116.57h-13.8a.46.46 0 0 1 -.45-.45.45.45 0 0 1 .45-.45h13.8a.46.46 0 0 1 .46.45.46.46 0 0 1 -.46.45" fill="#2d6c83"/><path d="m129.15 118.35h-2.15a.45.45 0 0 1 0-.9h2.17a.45.45 0 0 1 .45.45.45.45 0 0 1 -.45.45z" fill="#2d6c83"/><path d="m133 120.13h-6a.45.45 0 0 1 0-.9h6a.44.44 0 0 1 .44.45.45.45 0 0 1 -.44.45" fill="#2d6c83"/><path d="m121.12 105.31a4.25 4.25 0 1 1 -4.25 4.25 4.25 4.25 0 0 1 4.25-4.25" fill="#3f3d56"/></svg>