<svg viewBox="0 0 233.54 125.71" xmlns="http://www.w3.org/2000/svg" xmlns:xlink="http://www.w3.org/1999/xlink"><clipPath id="a"><path d="m0 74.09h19.09v27.32h-19.09z"/></clipPath><clipPath id="b"><path d="m199.3 74.86h19.09v27.32h-19.09z"/></clipPath><clipPath id="c"><path d="m7.78 121.25h225.75v4.18h-225.75z"/></clipPath><clipPath id="d"><path d="m159.18 107.78h10.24v5.11h-10.24z"/></clipPath><clipPath id="e"><path d="m31.47 107.78h10.24v5.11h-10.24z"/></clipPath><path d="m132.57 62.69c-2.3-10.71-8.67-18.08-19.11-21.37s-20-1-27.87 6.61c-7.45 7.2-10.1 16.12-7.66 26.31a36.2 36.2 0 0 0 6.74 13.27c4.51 6 9.16 11.87 13.77 17.78 2.16 2.77 4.35 5.52 6.6 8.36l.63-.73 14.79-18.74a90 90 0 0 0 9-13c3.1-5.82 4.53-12 3.13-18.49m-9 9.65a19.1 19.1 0 0 1 -37.44-1.9c0-.2 0-.4-.07-.6a17.51 17.51 0 0 1 -.08-1.92 19.08 19.08 0 0 1 38.16-.07 18.57 18.57 0 0 1 -.53 4.45.06.06 0 0 1 0 0" fill="#2d6c83"/><path d="m21.48 91.86c0-5.27-4.27-17.77-9.55-17.77s-9.54 12.5-9.54 17.77a9.55 9.55 0 0 0 19.09 0" fill="#5594a3"/><g clip-path="url(#a)" opacity=".71"><path d="m19.09 91.86c0-5.27-4.27-17.77-9.54-17.77s-9.55 12.5-9.55 17.77a9.55 9.55 0 0 0 19.09 0" fill="#2d6c83"/></g><path d="m9.85 113.2a.29.29 0 0 1 -.3-.3v-26.59a.3.3 0 1 1 .59 0v26.59a.29.29 0 0 1 -.29.3" fill="#ccc"/><path d="m9.85 90.67a.29.29 0 0 1 -.3-.3.32.32 0 0 1 .08-.21l3.91-3.9a.29.29 0 0 1 .42 0 .31.31 0 0 1 0 .42l-3.9 3.9a.3.3 0 0 1 -.21.09" fill="#ccc"/><path d="m60.26 113.07h-24.46a2.54 2.54 0 0 1 -2.54-2.54v-98.74a2.54 2.54 0 0 1 2.54-2.54h24.46a2.54 2.54 0 0 1 2.54 2.54v98.74a2.54 2.54 0 0 1 -2.54 2.54" fill="#e6e6e6"/><path d="m45.64 113.07h-24.46a2.54 2.54 0 0 1 -2.53-2.54v-98.74a2.54 2.54 0 0 1 2.53-2.54h24.46a2.54 2.54 0 0 1 2.54 2.54v98.74a2.54 2.54 0 0 1 -2.54 2.54" fill="#f2f2f2"/><g fill="#fff"><path d="m30.73 31.63h-5.67a.76.76 0 0 1 -.75-.75v-8.65a.76.76 0 0 1 .75-.75h5.67a.75.75 0 0 1 .74.75v8.65a.75.75 0 0 1 -.74.75"/><path d="m41.77 31.63h-5.67a.76.76 0 0 1 -.75-.75v-8.65a.76.76 0 0 1 .75-.75h5.67a.75.75 0 0 1 .74.75v8.65a.75.75 0 0 1 -.74.75"/><path d="m30.73 47.44h-5.67a.76.76 0 0 1 -.75-.75v-8.69a.76.76 0 0 1 .75-.75h5.67a.75.75 0 0 1 .74.75v8.65a.75.75 0 0 1 -.74.75"/><path d="m41.77 47.44h-5.67a.76.76 0 0 1 -.75-.75v-8.69a.76.76 0 0 1 .75-.75h5.67a.75.75 0 0 1 .74.75v8.65a.75.75 0 0 1 -.74.75"/><path d="m30.73 63.25h-5.67a.76.76 0 0 1 -.75-.75v-8.65a.76.76 0 0 1 .75-.75h5.67a.75.75 0 0 1 .74.75v8.65a.75.75 0 0 1 -.74.75"/><path d="m41.77 63.25h-5.67a.76.76 0 0 1 -.75-.75v-8.65a.76.76 0 0 1 .75-.75h5.67a.75.75 0 0 1 .74.75v8.65a.75.75 0 0 1 -.74.75"/><path d="m30.73 79.06h-5.67a.76.76 0 0 1 -.75-.75v-8.65a.75.75 0 0 1 .75-.74h5.67a.74.74 0 0 1 .74.74v8.65a.75.75 0 0 1 -.74.75"/><path d="m41.77 79.06h-5.67a.76.76 0 0 1 -.75-.75v-8.65a.75.75 0 0 1 .75-.74h5.67a.74.74 0 0 1 .74.74v8.65a.75.75 0 0 1 -.74.75"/><path d="m30.73 94.87h-5.67a.75.75 0 0 1 -.75-.75v-8.65a.75.75 0 0 1 .75-.74h5.67a.74.74 0 0 1 .74.74v8.65a.74.74 0 0 1 -.74.75"/><path d="m41.77 94.87h-5.67a.75.75 0 0 1 -.75-.75v-8.65a.75.75 0 0 1 .75-.74h5.67a.74.74 0 0 1 .74.74v8.65a.74.74 0 0 1 -.74.75"/></g><path d="m220.78 92.63c0-5.27-4.28-17.77-9.55-17.77s-9.55 12.5-9.55 17.77a9.55 9.55 0 0 0 19.1 0" fill="#5594a3"/><g clip-path="url(#b)" opacity=".71"><path d="m218.39 92.63c0-5.27-4.27-17.77-9.55-17.77s-9.54 12.5-9.54 17.77a9.55 9.55 0 1 0 19.09 0" fill="#2d6c83"/></g><path d="m209.14 114a.3.3 0 0 1 -.3-.29v-26.63a.3.3 0 0 1 .3-.29.29.29 0 0 1 .3.29v26.6a.29.29 0 0 1 -.3.29" fill="#ccc"/><path d="m209.14 91.44a.3.3 0 0 1 -.3-.3.3.3 0 0 1 .09-.21l3.9-3.9a.31.31 0 0 1 .42 0 .29.29 0 0 1 0 .42l-3.9 3.91a.3.3 0 0 1 -.21.08" fill="#ccc"/><path d="m76.74 85.3a1.7 1.7 0 1 1 -1.74 1.7 1.71 1.71 0 0 1 1.7-1.7" fill="#ffb8b8"/><path d="m71.67 112.09-.81-.26.61-3.25 1.19.38z" fill="#ffb8b8"/><path d="m71.62 112.81-2.62-.81v-.07a1 1 0 0 1 1.29-.67l1.63.52z" fill="#2f2e41"/><path d="m77.56 112.07h-.85l-.4-3.28h1.25z" fill="#ffb8b8"/><path d="m75.1 112.83h2.61v-1h-1.65a1 1 0 0 0 -1 1z" fill="#2f2e41"/><path d="m77.54 111-.29-.05a4.21 4.21 0 0 1 -1.06-.19c-.07 0-.08-.5 0-3.14 0-1.93.06-4.33 0-5.62a.23.23 0 0 0 -.24-.22.25.25 0 0 0 -.2.14c-.64 1.49-1.73 4.84-2.45 7l-.57 1.75a.29.29 0 0 1 -.35.18c-.59-.14-.55-.21-1.39-.42a.29.29 0 0 1 -.21-.35c.15-.71 2.94-12.37 3.15-13.47a.29.29 0 0 1 .34-.24c.63.13 1 .26 1.63.39l2 .42a.34.34 0 0 1 .17.11 1.72 1.72 0 0 0 .68.45c.17.09-.23.08-.07.2.62.5-.27 10.52-.82 12.79a.3.3 0 0 1 -.32.22" fill="#26262b"/><path d="m77.47 88.49c-.1-.42.4-1.33.3-1.75s-.74-.09-.89-.34a.9.9 0 0 0 -.72-.45c-.33 0-.67.24-1 .13a.62.62 0 0 1 -.29-.85 1.53 1.53 0 0 1 .76-.66 2.23 2.23 0 0 1 1.67-.28 2.68 2.68 0 0 1 .89.56 3.32 3.32 0 0 1 .67.68 1.84 1.84 0 0 1 0 1.79 2.7 2.7 0 0 1 -1.4 1.2" fill="#26262b"/><path d="m73.29 98.31a21.61 21.61 0 0 0 .8-4.16c.24-1.65.44-3.33.54-4.18a.43.43 0 0 1 .24-.33l.19-.09a4.49 4.49 0 0 1 4.79.68 5.47 5.47 0 0 1 -.36 3.2c-.71 1.26-.72 4.61-.72 4.64-1.11-.31-5.38.24-5.42.24h-.07z" fill="#447f99"/><path d="m77 99.64a.62.62 0 0 1 .47-.73h.11l1.42-1.57.85 1-1.58 1.16a.62.62 0 0 1 -1.23.11" fill="#ffb8b8"/><path d="m77.82 98.56 2.18-2.89-1.11-2.4.11-2.85.91-.17a2.3 2.3 0 0 1 1 1.14c.2.51.62 2.25.94 3.61a2.09 2.09 0 0 1 -.56 2l-2.67 2.67z" fill="#447f99"/><path d="m68.72 92.35a.59.59 0 0 1 .86-.13l.09.07h2.1l-.06 1.35-2-.45a.64.64 0 0 1 -.9-.08.66.66 0 0 1 -.11-.78" fill="#ffb8b8"/><path d="m70.07 92.24 3.62-.24.47-1.48a1.58 1.58 0 0 1 1.37-1.1l.78-.07-.45.49.46.3c.16.51 1.12-.8.93-.33a35.38 35.38 0 0 1 -1.74 3.15 1.86 1.86 0 0 1 -1.78.89l-3.84-.26z" fill="#447f99"/><path d="m66.87 91.68a.16.16 0 0 1 .09-.19l1-.31a.14.14 0 0 1 .14 0l1.44 1.36a.13.13 0 0 1 0 .19l-.53.38a.15.15 0 0 1 -.17 0l-1.87-1.41a.18.18 0 0 1 0-.07" fill="#3f3d56"/><path d="m67.1 91.65 1.68 1.27a.06.06 0 0 0 .07 0l.47-.34a.06.06 0 0 0 0-.07l-1.32-1.22s0 0 0 0l-.87.28a0 0 0 0 0 0 .06" fill="#fff"/><path d="m68.26 91.88h-.01z" fill="#31687d"/><path d="m68.18 92a.13.13 0 0 0 .11 0 .3.3 0 0 1 .16 0 .19.19 0 0 1 .05.09s0 .08 0 .08a.47.47 0 0 1 -.3-.16.23.23 0 0 1 0-.27h.07.06a.09.09 0 0 0 -.06 0 .15.15 0 0 0 -.06.12" fill="#31687d"/><path d="m68.5 92a.08.08 0 0 1 -.08 0h-.06a.14.14 0 0 0 -.14 0 .15.15 0 0 1 0-.15.09.09 0 0 1 .06 0 .22.22 0 0 1 .11.05.13.13 0 0 1 .06.1" fill="#38849a"/><path d="m68.57 92.06h-.08s0 0 0 0a0 0 0 0 0 0 0 .06.06 0 0 0 0 0v.07s0 0 0 0" fill="#38849a"/><g clip-path="url(#c)" opacity=".12"><path d="m120.66 121.25c62.34 0 112.88.94 112.88 2.09s-50.54 2.09-112.88 2.09-112.88-.94-112.88-2.09 50.54-2.09 112.88-2.09" fill="#2d6c83"/></g><path d="m98.38 14.07c.08.29-.2.61-.61.71s-.81 0-.88-.32.2-.61.61-.72.81 0 .88.33" fill="#ffd712"/><path d="m83.74 34.91c.18.68-.48 1.44-1.46 1.7s-1.92-.1-2.1-.78.48-1.44 1.46-1.7 1.92.09 2.1.78" fill="#e6e6e6"/><path d="m88.15 19.38c.13.49-.34 1-1 1.21s-1.37-.06-1.5-.55.34-1 1-1.21 1.37.06 1.5.55" fill="#3f3d56"/><path d="m107.08 19.94c.11.39-.27.83-.84 1s-1.11-.06-1.21-.45.28-.83.84-1 1.11.05 1.21.45" fill="#a3c7d1"/><path d="m83.22 30.27c.13.51-.35 1.08-1.09 1.27s-1.43-.07-1.57-.58.36-1.08 1.09-1.27 1.44.07 1.57.58" fill="#a3c7d1"/><path d="m113.47 17.78c.26.62.12 1.27-.32 1.45s-1-.18-1.25-.81-.11-1.27.32-1.45 1 .18 1.25.81" fill="#e6e6e6"/><path d="m90 26.15c.26.63.11 1.28-.32 1.45s-1-.18-1.25-.8a1.09 1.09 0 0 1 .32-1.45c.43-.18 1 .18 1.25.8" fill="#e6e6e6"/><path d="m75.77 33.48c.24.59.1 1.21-.31 1.38s-.94-.17-1.19-.76-.11-1.22.31-1.39.94.18 1.19.77" fill="#e6e6e6"/><path d="m109.5 11.35c.26.63.11 1.28-.32 1.45s-1-.18-1.25-.8a1.09 1.09 0 0 1 .32-1.45c.43-.18 1 .18 1.25.8" fill="#3f3d56"/><path d="m98 22.1c.25.62.11 1.27-.32 1.45s-1-.18-1.25-.81-.12-1.27.32-1.45 1 .18 1.25.81" fill="#e6e6e6"/><path d="m102.42 17c.25.62.11 1.27-.32 1.45s-1-.18-1.25-.81-.12-1.27.32-1.45 1 .18 1.25.81" fill="#91b8c1"/><path d="m83 22.35c.25.62.11 1.27-.32 1.45s-1-.18-1.25-.8-.12-1.28.32-1.46 1 .19 1.25.81" fill="#91b8c1"/><path d="m92.45 15.06c.26.63.12 1.28-.32 1.45s-1-.18-1.25-.8-.11-1.27.32-1.45 1 .18 1.25.8" fill="#3f3d56"/><path d="m74.47 39.93a1 1 0 0 1 -.3 1.38c-.41.17-1-.17-1.19-.76s-.11-1.22.3-1.39 1 .18 1.19.77" fill="#3f3d56"/><path d="m179.77 35.77c.39.52.1 1.39-.65 1.95a1.52 1.52 0 0 1 -2.05.07c-.39-.52-.1-1.4.65-1.95s1.67-.59 2.05-.07" fill="#ffd712"/><path d="m172.77 44.28c.39.52.1 1.4-.65 1.95a1.49 1.49 0 0 1 -2.05.07c-.39-.52-.1-1.39.65-1.95s1.66-.59 2.05-.07" fill="#3f3d56"/><path d="m188.18 39.92c.38.52.09 1.4-.65 1.95s-1.67.59-2.05.07-.1-1.39.64-1.95 1.67-.59 2.06-.07" fill="#83b0ba"/><path d="m192.47 40.1c.42.42.52 1 .22 1.28s-.86.18-1.27-.24a.79.79 0 1 1 1.05-1" fill="#e6e6e6"/><path d="m198.41 43.75c.41.42.51 1 .22 1.28s-.86.18-1.28-.24-.51-1-.22-1.28a1 1 0 0 1 1.28.24" fill="#3f3d56"/><path d="m181.09 44.21c.41.42.51 1 .22 1.28a1 1 0 0 1 -1.28-.24c-.41-.42-.51-1-.22-1.28s.86-.18 1.28.24" fill="#e6e6e6"/><path d="m183 38.59c.42.42.52 1 .22 1.28a1.14 1.14 0 0 1 -1.49-1.52c.29-.29.86-.18 1.27.24" fill="#a3c7d1"/><path d="m174.29 40.35c.41.42.51 1 .22 1.27a1 1 0 0 1 -1.28-.23c-.41-.42-.51-1-.22-1.28s.86-.18 1.28.24" fill="#3f3d56"/><path d="m133.77 11.55c-.48-.29-.52-1.08-.11-1.76s1.14-1 1.61-.7a1.28 1.28 0 0 1 .1 1.75c-.41.68-1.13 1-1.6.71" fill="#e6e6e6"/><path d="m136.61 2.57c-.48-.29-.52-1.08-.11-1.76s1.14-1 1.61-.7a1.28 1.28 0 0 1 .1 1.75c-.41.68-1.13 1-1.6.71" fill="#3f3d56"/><path d="m125.78 10.93a1.29 1.29 0 0 1 -.11-1.75c.42-.68 1.14-1 1.61-.71a1.28 1.28 0 0 1 .1 1.75c-.41.68-1.13 1-1.6.71" fill="#83b0ba"/><path d="m122.32 12.16c-.47-.21-.73-.63-.59-.95s.63-.42 1.09-.22.72.63.58.95-.62.42-1.08.22" fill="#e6e6e6"/><path d="m116.45 11.15c-.46-.2-.72-.62-.58-.94s.62-.42 1.08-.22.73.63.59.95-.63.41-1.09.21" fill="#3f3d56"/><path d="m130 5.27c-.46-.2-.72-.62-.58-.94s.62-.42 1.08-.22.73.63.59.95a.81.81 0 0 1 -1.09.21" fill="#ffd712"/><path d="m130.34 10.33c-.46-.2-.72-.62-.58-.95s.63-.41 1.09-.21.72.62.58.94-.63.42-1.09.22" fill="#a3c7d1"/><path d="m136.66 6.17c-.46-.2-.72-.62-.58-.94s.63-.42 1.09-.22.72.62.58.94-.63.42-1.09.22" fill="#3f3d56"/><path d="m158.72 40.44c-.34-.57-.3-1.22.09-1.46s1 0 1.34.59a1.08 1.08 0 0 1 -.09 1.46c-.39.24-1 0-1.34-.59" fill="#e6e6e6"/><path d="m156.36 33c-.34-.56-.31-1.21.09-1.45s1 0 1.33.59a1.06 1.06 0 0 1 -.08 1.45c-.4.24-1 0-1.34-.59" fill="#3f3d56"/><path d="m165.37 39.92a1.06 1.06 0 0 1 .09-1.46c.39-.24 1 0 1.33.59s.31 1.22-.08 1.46-1 0-1.34-.59" fill="#83b0ba"/><path d="m162.26 35.63c-.12-.27.1-.62.48-.79s.79-.09.91.18-.1.62-.49.79-.79.08-.9-.18" fill="#e6e6e6"/><path d="m162 39.83c-.12-.26.1-.62.48-.78a.68.68 0 0 1 .91.18c.11.26-.1.62-.49.78s-.79.09-.9-.18" fill="#a3c7d1"/><path d="m156.75 36.37c-.12-.27.1-.62.48-.78a.68.68 0 0 1 .91.18c.11.26-.1.62-.49.78s-.79.09-.9-.18" fill="#3f3d56"/><path d="m139.91 113.2a.29.29 0 0 1 -.29-.3v-26.59a.3.3 0 1 1 .59 0v26.59a.29.29 0 0 1 -.3.3" fill="#b2b6b7"/><path d="m139.91 90.67a.29.29 0 0 1 -.29-.3.32.32 0 0 1 .08-.21l3.9-3.9a.3.3 0 0 1 .43 0 .31.31 0 0 1 0 .42l-3.91 3.9a.27.27 0 0 1 -.21.09" fill="#b2b6b7"/><path d="m221.37 113.52h-216.75c-.11 0-.21-.14-.21-.3s.1-.3.21-.3h216.75c.12 0 .21.13.21.3s-.09.3-.21.3" fill="#e6e6e6"/><path d="m148.52 112.64a.16.16 0 0 1 -.09 0l-1.66-1.43a.14.14 0 0 1 .23-.21l1.66 1.43a.13.13 0 0 1 0 .19.16.16 0 0 1 -.11 0" fill="#898b8c"/><path d="m186.75 113h-19.85a2.06 2.06 0 0 1 -2.06-2.06v-38.53a2.06 2.06 0 0 1 2.06-2.06h19.85a2.06 2.06 0 0 1 2.06 2.06v38.49a2.06 2.06 0 0 1 -2.06 2.06" fill="#e6e6e6"/><path d="m174.89 113h-34.38a2.06 2.06 0 0 1 -2.06-2.06v-38.53a2.06 2.06 0 0 1 2.06-2.06h34.38a2.07 2.07 0 0 1 2.11 2.06v38.49a2.07 2.07 0 0 1 -2.06 2.06" fill="#f2f2f2"/><path d="m155.52 89.36h-4.6a.61.61 0 0 1 -.61-.61v-7a.61.61 0 0 1 .61-.6h4.6a.6.6 0 0 1 .6.6v7a.6.6 0 0 1 -.6.61" fill="#fff"/><path d="m164.48 89.36h-4.6a.61.61 0 0 1 -.61-.61v-7a.6.6 0 0 1 .61-.6h4.6a.6.6 0 0 1 .6.6v7a.6.6 0 0 1 -.6.61" fill="#fff"/><path d="m155.52 102.19h-4.6a.61.61 0 0 1 -.61-.61v-7a.61.61 0 0 1 .61-.6h4.6a.6.6 0 0 1 .6.6v7a.6.6 0 0 1 -.6.61" fill="#fff"/><path d="m164.48 102.19h-4.6a.61.61 0 0 1 -.61-.61v-7a.6.6 0 0 1 .61-.6h4.6a.6.6 0 0 1 .6.6v7a.6.6 0 0 1 -.6.61" fill="#fff"/><path d="m182.53 93.61a.67.67 0 0 1 .47.82.36.36 0 0 1 0 .11l1.72 1.66-1.21.27-1.51-1.61a.68.68 0 0 1 .5-1.25" fill="#ffb8b8"/><path d="m184.94 98-2.12-2a.3.3 0 0 1 0-.43l.44-.44a.29.29 0 0 1 .39 0l1.77 1.36 1.11-2.68a.84.84 0 0 1 1.09-.46.83.83 0 0 1 .46.89 10 10 0 0 1 -2.08 3.66.75.75 0 0 1 -.82.22.78.78 0 0 1 -.24-.16" fill="#69a3b2"/><path d="m183.75 96-1.56-2.26a.14.14 0 0 1 0-.19h.06a.12.12 0 0 1 .18 0l1.57 2.29a.14.14 0 0 1 0 .19h-.06a.14.14 0 0 1 -.19 0" fill="#fff"/><path d="m183.31 96.06-1.31-1.88a.37.37 0 0 1 .1-.51l.13-.09 1.77 2.48-.14.09a.38.38 0 0 1 -.51-.09" fill="#3f3d56"/><path d="m183.47 112.24-.81-.1.11-3.16 1.06.13z" fill="#ffb8b8"/><path d="m183.59 113.05-2.62-.3a1 1 0 0 1 1.14-.9l1.6.19z" fill="#2f2e41"/><path d="m192.91 111.64-.78.24-1.3-2.9 1.15-.35z" fill="#ffb8b8"/><path d="m193.35 112.33-2.52.78a1 1 0 0 1 .68-1.28l1.53-.48z" fill="#2f2e41"/><path d="m182.56 111.51a.33.33 0 0 1 -.22-.41l.49-5.63a1.58 1.58 0 0 1 .24-.73l3-4.91 2.65.47c1.29.79 2.43 4.62 3.54 8.32l.52 1.74a.33.33 0 0 1 -.18.43l-.8.34a.34.34 0 0 1 -.42-.15l-4.13-7.56a.05.05 0 0 0 0 0 .07.07 0 0 0 -.06 0l-2.39 2.71-.88 5.17a.33.33 0 0 1 -.39.19h-.89z" fill="#26262b"/><path d="m185.89 100.37s-1.23-4.14-.14-6.75c0-.06.8-1.52 1.68-1.67l.28.54a4.72 4.72 0 0 1 .94 4.48c.07.23.93 3.36.46 3.83a.8.8 0 0 1 -.58.14 11.43 11.43 0 0 1 -2.65-.53" fill="#7db5c9"/><path d="m187.23 87.27a2.07 2.07 0 1 1 -2.07 2.06 2.07 2.07 0 0 1 2.07-2.06" fill="#26262b"/><path d="m186.41 88.11a1.64 1.64 0 1 1 -1.64 1.64 1.65 1.65 0 0 1 1.64-1.64" fill="#ffb8b8"/><path d="m187.46 91.34a.43.43 0 0 1 -.45 0 .39.39 0 0 1 0-.45 2.11 2.11 0 0 0 .2-.43.65.65 0 0 0 -.24-.6 1.74 1.74 0 0 0 -.59-.3l-1.15-.41a1.34 1.34 0 0 1 -.75-.48.9.9 0 0 1 .36-1.16 1.46 1.46 0 0 1 1.26 0 4.27 4.27 0 0 0 .67.27c.46.12 1 0 1.38.27a1.3 1.3 0 0 1 .51 1.12 3.47 3.47 0 0 1 -.34 1.23 2.41 2.41 0 0 1 -.38.66.76.76 0 0 1 -.65.28z" fill="#26262b"/><path d="m189 87a1.34 1.34 0 1 1 -1.33 1.33 1.34 1.34 0 0 1 1.33-1.33" fill="#26262b"/><path d="m186.76 90.27a.14.14 0 0 1 .14-.14.13.13 0 0 1 .13.14.13.13 0 0 1 -.08.12v.29a0 0 0 0 1 -.1 0v-.29a.14.14 0 0 1 -.09-.12" fill="#fff"/><path d="m182.61 95a.68.68 0 0 1 .73.6v.12l2.19 1-1 .68-1.92-1a.67.67 0 0 1 -.57-.76.69.69 0 0 1 .61-.58" fill="#ffb8b8"/><path d="m186.38 98.25-2.67-1.12a.3.3 0 0 1 -.16-.4l.25-.56a.32.32 0 0 1 .37-.17l2.13.66.1-2.9a.84.84 0 0 1 .87-.81.84.84 0 0 1 .74.67 9.72 9.72 0 0 1 -.71 4.2.72.72 0 0 1 -1 .43" fill="#7db5c9"/><g clip-path="url(#d)" opacity=".19"><path d="m159.18 112.89a5.12 5.12 0 0 1 10.24 0" fill="#2d6c83"/></g><path d="m164.3 112.89a.14.14 0 0 1 -.14-.13v-2.7a.14.14 0 0 1 .14-.14.14.14 0 0 1 .14.14v2.7a.13.13 0 0 1 -.14.13" fill="#898b8c"/><path d="m164.3 112a.18.18 0 0 1 -.09 0l-1.66-1.42a.15.15 0 0 1 0-.2.14.14 0 0 1 .2 0l1.66 1.42a.14.14 0 0 1 0 .2.16.16 0 0 1 -.11 0" fill="#898b8c"/><g clip-path="url(#e)" opacity=".68"><path d="m31.47 112.89a5.12 5.12 0 0 1 10.24 0" fill="#2d6c83"/></g><path d="m36.59 112.89a.13.13 0 0 1 -.13-.13v-2.7a.13.13 0 0 1 .13-.14.14.14 0 0 1 .14.14v2.7a.13.13 0 0 1 -.14.13" fill="#f2f2f2"/><path d="m36.59 112a.18.18 0 0 1 -.09 0l-1.66-1.42a.14.14 0 0 1 0-.2.13.13 0 0 1 .19 0l1.66 1.42a.14.14 0 0 1 -.09.25" fill="#f2f2f2"/><path d="m133.74 101a.72.72 0 0 1 -.53-.86.56.56 0 0 1 0-.12l-2.64-6 1.51-.38 2.11 6a.71.71 0 0 1 .32 1 .73.73 0 0 1 -.81.38" fill="#a0616a"/><path d="m131.1 95.94a.32.32 0 0 1 -.18-.2l-.46-1.55a.89.89 0 0 1 1.61-.76l.89 1.35a.32.32 0 0 1 -.09.45l-1.46.69a.36.36 0 0 1 -.27 0" fill="#447f99"/><path d="m136.47 95.17-1.62 1.15a.12.12 0 0 1 -.14 0l-.44-.33a.13.13 0 0 1 0-.17l1.25-1.11a.11.11 0 0 1 .12 0l.81.29a.12.12 0 0 1 .07.15.09.09 0 0 1 0 .06" fill="#3f3d56"/><path d="m136.33 95.06a0 0 0 0 0 0-.06l-.73-.26-1.13 1s0 0 0 .06l.39.29a0 0 0 0 0 .05 0l1.46-1s0 0 0 0" fill="#fff"/><path d="m130.57 112.24h.82l.39-3.15h-1.21z" fill="#a0616a"/><path d="m130.36 112h1.64a1 1 0 0 1 1 1h-2.64z" fill="#2f2e41"/><path d="m127.84 112.24h.82l.39-3.15h-1.21z" fill="#a0616a"/><path d="m127.63 112h1.61a1 1 0 0 1 1 1h-2.64z" fill="#2f2e41"/><path d="m127.67 111.28a.33.33 0 0 1 -.09-.23c-.19-2 .33-12.53 1.56-13.43l3.58-.62.06.06c0 .1.66 9.32-1.14 14a.3.3 0 0 1 -.28.19h-.71a.29.29 0 0 1 -.3-.3l.58-8.82a.12.12 0 0 0 -.09-.11.11.11 0 0 0 -.11.08l-1.63 9a.32.32 0 0 1 -.27.24l-.94.06a.33.33 0 0 1 -.21-.09" fill="#26262b"/><path d="m132.38 88.33a1.64 1.64 0 1 1 -1.64 1.67 1.64 1.64 0 0 1 1.64-1.64" fill="#a0616a"/><path d="m128.44 99.06a.39.39 0 0 1 -.11-.27l.67-3.12c-.54-2.27.17-2.69 1-3.12l.33-.91a.29.29 0 0 1 .35-.2l1.7.91a.3.3 0 0 1 .16.19.45.45 0 0 1 0 .28l-.13.34c.32.43.83 2.15.3 2.82l.4 2.22a.35.35 0 0 1 -.25.37l-4.2.54h-.05a.33.33 0 0 1 -.19-.08" fill="#447f99"/><path d="m134.55 95.47-.07.08-3.29-.23-.36-.72-1.15.4.5 1.33a.52.52 0 0 0 .54.34l3.74-.28a.7.7 0 0 0 1 .16.71.71 0 0 0 .16-1 .7.7 0 0 0 -1-.15h-.07" fill="#a0616a"/><path d="m131.06 95.34-1.43.48a.3.3 0 0 1 -.38-.2s0 0 0 0l-.25-1.52a.83.83 0 0 1 1.58-.52l.68 1.34a.3.3 0 0 1 -.14.4" fill="#447f99"/><path d="m131.46 86a1.34 1.34 0 1 1 -1.33 1.33 1.33 1.33 0 0 1 1.33-1.33" fill="#26262b"/><path d="m133.93 90.17a.7.7 0 0 0 .38 0 .43.43 0 0 0 .23-.35c.25-1.65-1.15-1.51-1.32-1.58a2 2 0 0 1 -.29-.22 1.36 1.36 0 0 0 -.77-.16 2.27 2.27 0 0 0 -.93.11 1.42 1.42 0 0 0 -.62.57 2.8 2.8 0 0 0 -.3.79 2 2 0 0 0 -.06 1 1.2 1.2 0 0 0 1.1.87.9.9 0 0 1 .47-1 1.37 1.37 0 0 1 .91-.11 4.09 4.09 0 0 0 .6.07h.6" fill="#26262b"/><path d="m54.09 116.42a13.9 13.9 0 0 1 -2-3.72.35.35 0 0 1 .17-.43l2.9-1.56a.37.37 0 0 1 .31 0 .39.39 0 0 1 .21.24 8.52 8.52 0 0 0 1.85 3.47.33.33 0 0 1 .09.3.38.38 0 0 1 -.18.25l-2.91 1.55a.34.34 0 0 1 -.45-.09" fill="#ccc"/><path d="m54.29 116.27a.09.09 0 0 0 .13 0l2.91-1.55a.09.09 0 0 0 .05-.08.1.1 0 0 0 0-.09 8.54 8.54 0 0 1 -1.93-3.55.12.12 0 0 0 -.07-.07.14.14 0 0 0 -.09 0l-2.91 1.56a.12.12 0 0 0 -.05.13 14 14 0 0 0 2 3.65" fill="#fff"/><path d="m55.37 112.94-1.59.7a.27.27 0 0 1 -.33-.13v-.09a.25.25 0 0 1 .12-.33l1.59-.7a.25.25 0 0 1 .32.13v.09a.25.25 0 0 1 -.12.33" fill="#ccc"/><path d="m55.94 114-1.58.7a.25.25 0 0 1 -.33-.13v-.09a.25.25 0 0 1 .13-.32l1.58-.7a.24.24 0 0 1 .33.13v.08a.24.24 0 0 1 -.13.33" fill="#ccc"/><path d="m52.23 113.12a.9.9 0 0 1 -.27-1.23.64.64 0 0 1 .1-.13l-.67-9.47 1.93.19v9.28a.89.89 0 0 1 0 1.26.9.9 0 0 1 -1.1.1" fill="#a0616a"/><path d="m51.83 105.47a.39.39 0 0 1 -.16-.28l-.14-2.55a1 1 0 0 1 2-.33l.62 2.29a.37.37 0 0 1 -.27.45l-1.76.48a.35.35 0 0 1 -.31-.06" fill="#3f3d56"/><path d="m48.55 124.77h-1.01l-.49-3.91h1.5z" fill="#a0616a"/><path d="m46.59 124.48h2.18v1.23h-3.19v-.23a1 1 0 0 1 1-1" fill="#2f2e41"/><path d="m52.35 124.77h-1.01l-.48-3.91h1.49z" fill="#a0616a"/><path d="m50.39 124.48h2.18v1.23h-3.19v-.23a1 1 0 0 1 1-1" fill="#2f2e41"/><path d="m48.5 122.79-1.11-.05a.37.37 0 0 1 -.36-.37c-.29-4.54-.7-9.41-.08-11.29a.38.38 0 0 1 .37-.38h.06l4.47.64a.38.38 0 0 1 .31.37c.57 2.23.6 6.27.58 10.47a.38.38 0 0 1 -.37.37h-1.21a.38.38 0 0 1 -.37-.31l-.74-4.72a.28.28 0 0 0 -.33-.24.28.28 0 0 0 -.24.25l-.59 4.93a.39.39 0 0 1 -.37.33" fill="#2f2e41"/><path d="m49.29 111.72a5.74 5.74 0 0 0 -2.13-.73.35.35 0 0 1 -.25-.14.39.39 0 0 1 -.08-.28l1.07-7.94a2.77 2.77 0 0 1 1.61-2.15 2.64 2.64 0 0 1 2.59.21.41.41 0 0 1 .11.07 2.75 2.75 0 0 1 1 2.86 49.64 49.64 0 0 0 -.92 7.94.38.38 0 0 1 -.25.33 3.85 3.85 0 0 1 -1.26.23 3.18 3.18 0 0 1 -1.54-.4" fill="#3f3d56"/><path d="m50.18 95.34a2 2 0 1 1 -2 2 2 2 0 0 1 2-2" fill="#a0616a"/><path d="m51.62 99a.66.66 0 0 1 -.93 0 .64.64 0 0 1 -.2-.4.24.24 0 0 1 0-.12 3 3 0 0 0 .13-.73.45.45 0 0 0 -.07-.18c-.3-.4-1 .18-1.29-.18s0-.58-.11-.83-.7-.17-1-.35-.34-.76-.1-1.1a1.72 1.72 0 0 1 1.32-.67 3.33 3.33 0 0 1 1.49.29 2.92 2.92 0 0 1 1.4 1 2.38 2.38 0 0 1 .24 2 3.92 3.92 0 0 1 -.88 1.27" fill="#2f2e41"/><path d="m53.23 101c0-.16-.34-.39-.78-.58a4.83 4.83 0 0 0 -4.34.37.22.22 0 0 0 -.19.17l-1.47 6.49-.19.85-.13.56-.19.84-.1.45a.21.21 0 0 0 .16.25l6.35.54a.21.21 0 0 0 .2-.19l.06-.92.07-1v-.43l.07-1 .42-6.43z" fill="#447f99"/><path d="m52.81 107.4-.07.98-6.48-.13.19-.85z" fill="#447f99"/><path d="m52.72 108.81-.07.98-6.71-.14.19-.84z" fill="#447f99"/><path d="m39 99.4a.21.21 0 0 1 .13-.26l1.39-.45a.21.21 0 0 1 .21 0l2.05 1.94a.2.2 0 0 1 -.06.28l-.75.53a.23.23 0 0 1 -.25 0l-2.68-2a.23.23 0 0 1 -.07-.1" fill="#3f3d56"/><path d="m39.33 99.36 2.41 1.82a.1.1 0 0 0 .09 0l.68-.48a.08.08 0 0 0 0-.1l-1.85-1.76a.1.1 0 0 0 -.07 0l-1.25.41a.07.07 0 0 0 -.05.09s0 0 0 0" fill="#fff"/><path d="m41 99.7s0 0 0 0z" fill="#31687d"/><path d="m40.87 99.88s0 0 0 0a.13.13 0 0 0 0 .06 0 0 0 0 0 0 0 .24.24 0 0 0 .16.07.48.48 0 0 1 .23.07.2.2 0 0 1 .06.13s0 .11 0 .12a.62.62 0 0 1 -.43-.22.29.29 0 0 1 0-.39h.09.09-.09a.25.25 0 0 0 -.09.18" fill="#31687d"/><path d="m41.34 99.86a0 0 0 0 1 0 0 .09.09 0 0 1 -.1 0h-.1a.23.23 0 0 0 -.2 0 .19.19 0 0 1 0-.21s0 0 0 0h.09a.23.23 0 0 1 .16.06.2.2 0 0 1 .09.15" fill="#38849a"/><path d="m41.44 100h-.13a0 0 0 0 1 0 0s0 0 0 0 0 0 0-.06a0 0 0 0 1 0 0l.07.09s0 0 0 0" fill="#38849a"/><path d="m42.82 101.36a.68.68 0 0 1 0 .14l3.55 2 .87-.5.92 1.21-1.85 1.31-4-3.19a.88.88 0 0 1 -1.12-.52.87.87 0 0 1 1.63-.6v.1" fill="#a0616a"/><path d="m46.52 103.37a.38.38 0 0 1 .11-.3l1.81-1.81a1 1 0 0 1 1.56 1.29l-1.29 2a.37.37 0 0 1 -.51.11l-1.53-1a.35.35 0 0 1 -.17-.28" fill="#3f3d56"/></svg>