<svg viewBox="0 0 151.56 150.37" xmlns="http://www.w3.org/2000/svg" xmlns:xlink="http://www.w3.org/1999/xlink"><clipPath id="a"><path d="m41.7 79.11h35.76v9.15h-35.76z"/></clipPath><clipPath id="b"><path d="m41.7 95.04h42.55v9.15h-42.55z"/></clipPath><clipPath id="c"><path d="m67.06 114.98h31.92v9.15h-31.92z"/></clipPath><path d="m16.05 126.67-1.32-5.2a65.15 65.15 0 0 0 -7.17-2.58l-.17 2.42-.67-2.66c-3-.87-5.08-1.25-5.08-1.25s2.77 10.6 8.6 18.6l6.79 1.2-5.27.76a27.82 27.82 0 0 0 2.36 2.5c8.47 7.9 17.88 11.54 21.08 8.1s-1.13-12.56-9.61-20.43a35.91 35.91 0 0 0 -9.23-5.94z" fill="#f2f2f2"/><path d="m28.61 121 1.56-5.14a68.28 68.28 0 0 0 -4.81-5.86l-1.36 2 .8-2.63c-2.14-2.3-3.71-3.69-3.71-3.69s-3.09 10.43-2.3 20.32l5.2 4.54-4.91-2.08a25.79 25.79 0 0 0 .73 3.36c3.19 11.12 9.4 19.09 13.88 17.8s5.52-11.31 2.31-22.42a35.84 35.84 0 0 0 -4.83-9.86z" fill="#90b8bf"/><path d="m106.25 35.62h-.82v-22.56a13.06 13.06 0 0 0 -13.06-13.06h-47.81a13.06 13.06 0 0 0 -13.06 13.06v123.78a13.06 13.06 0 0 0 13.06 13.06h47.81a13.06 13.06 0 0 0 13.06-13.06v-85.16h.82z" fill="#26262b"/><path d="m92.89 3.4h-6.24a4.63 4.63 0 0 1 -2.54 6 4.74 4.74 0 0 1 -1.75.34h-27.36a4.63 4.63 0 0 1 -4.64-4.63 4.56 4.56 0 0 1 .35-1.75h-5.85a9.74 9.74 0 0 0 -9.75 9.75v123.6a9.75 9.75 0 0 0 9.75 9.76h48a9.76 9.76 0 0 0 9.76-9.76v-123.56a9.75 9.75 0 0 0 -9.73-9.75" fill="#fff"/><path d="m151 150.37h-144.52c-.31 0-.56-.11-.56-.25s.25-.24.56-.24h144.52c.31 0 .56.11.56.24s-.25.25-.56.25" fill="#3f3d56"/><path d="m66.49 49.94.42-.25.46-.2h-.17a4.4 4.4 0 0 0 -1.8-.19 4.92 4.92 0 0 0 -4.14 4.89c-.06 2.73 1.89 5.24 3.7 7.09a5.16 5.16 0 0 0 .54.5c.56.39 1.4-.88 1.6-1.3a15.33 15.33 0 0 1 -1.69-2.48 7.37 7.37 0 0 1 -1.14-3.82s0 0 0-.05a5.43 5.43 0 0 1 .38-1.88 5 5 0 0 1 1.83-2.25z" fill="#ccc"/><path d="m71.58 50.11a5 5 0 0 0 -1.26 1.44l-.06.1a5.23 5.23 0 0 0 -.37.84 2.9 2.9 0 0 0 -.14.48 4.91 4.91 0 0 0 -.16 1.15 5.93 5.93 0 0 0 .17 1.51c0 .09 0 .18.07.28a7.16 7.16 0 0 0 .25.74 9.06 9.06 0 0 0 .71 1.43l.08.13c.17.28.36.57.56.84a20 20 0 0 0 1.86 2.16c.1.11.21.22.32.32l.22.18c.56.39 1.4-.88 1.6-1.3a3.56 3.56 0 0 0 .28-2.25 4.27 4.27 0 0 0 3.62-4.22 5 5 0 0 0 -3.8-4.52 4.4 4.4 0 0 0 -1.8-.19 4.49 4.49 0 0 0 -1.56.52z" fill="#2d6c83"/><path d="m71.24 49.7.33-.15-.39-.13a4.34 4.34 0 0 0 -1.79-.19 4.8 4.8 0 0 0 -1.42.44l-.19.11-.1.06a5 5 0 0 0 -2.06 2.53 5.43 5.43 0 0 0 -.33 1.75 5.2 5.2 0 0 0 .07 1.05 8.29 8.29 0 0 0 1.2 3 13.38 13.38 0 0 0 .92 1.31c.48.61 1 1.18 1.5 1.7.11.11.21.22.33.32l.22.18c.55.39 1.39-.88 1.6-1.3a2.75 2.75 0 0 0 .15-.36c-.27-.32-.54-.66-.79-1s-.39-.56-.56-.84l-.06-.09a9.1 9.1 0 0 1 -.44-.81 7.53 7.53 0 0 1 -.61-1.68s0 0 0-.05a6.56 6.56 0 0 1 -.14-1c0-.15 0-.31 0-.47a5.59 5.59 0 0 1 .3-1.63c0-.07 0-.15.08-.23a5.49 5.49 0 0 1 .68-1.22s0 0 0 0a4.65 4.65 0 0 1 1.17-1z" fill="#ccc"/><g clip-path="url(#a)" opacity=".46"><path d="m75.1 88.26h-31a2.36 2.36 0 0 1 -2.4-2.36v-4.42a2.35 2.35 0 0 1 2.36-2.36h31a2.36 2.36 0 0 1 2.36 2.36v4.42a2.36 2.36 0 0 1 -2.36 2.36" fill="#26262b"/></g><g clip-path="url(#b)" opacity=".46"><path d="m81.89 104.19h-37.83a2.36 2.36 0 0 1 -2.36-2.36v-4.42a2.35 2.35 0 0 1 2.36-2.36h37.83a2.35 2.35 0 0 1 2.35 2.36v4.42a2.36 2.36 0 0 1 -2.35 2.36" fill="#26262b"/></g><g clip-path="url(#c)" opacity=".41"><path d="m96.61 124.13h-27.19a2.36 2.36 0 0 1 -2.36-2.36v-4.42a2.35 2.35 0 0 1 2.36-2.35h27.19a2.35 2.35 0 0 1 2.39 2.35v4.42a2.36 2.36 0 0 1 -2.36 2.36" fill="#90b8bf"/></g><path d="m129.66 47.67c.14-1 1.39-1.6 2.8-1.4s2.43 1.17 2.28 2.14-1.39 1.61-2.8 1.4-2.43-1.16-2.28-2.14" fill="#fff"/><path d="m146.38 46c.15-1 1.4-1.6 2.81-1.4s2.43 1.16 2.28 2.14-1.39 1.61-2.8 1.4-2.43-1.14-2.29-2.14" fill="#3f3d56"/><path d="m125.07 34.13c.15-1 1.4-1.61 2.81-1.4s2.42 1.16 2.28 2.14-1.39 1.6-2.8 1.4-2.43-1.16-2.29-2.14" fill="#a3c7d1"/><path d="m120.63 29.3c0-.89.52-1.62 1.15-1.61s1.12.73 1.11 1.63-.52 1.62-1.14 1.62-1.12-.74-1.12-1.64" fill="#e6e6e6"/><path d="m118.17 19c0-.9.52-1.62 1.14-1.62s1.12.74 1.12 1.64-.52 1.62-1.15 1.61-1.12-.73-1.11-1.63" fill="#3f3d56"/><path d="m137.34 37.16c0-.9.52-1.62 1.14-1.62s1.13.74 1.12 1.63-.52 1.63-1.14 1.62-1.13-.74-1.12-1.63" fill="#e6e6e6"/><path d="m129.25 41.19c0-.89.52-1.62 1.15-1.61s1.12.73 1.11 1.63-.52 1.62-1.14 1.62-1.12-.74-1.12-1.64" fill="#a3c7d1"/><path d="m140.51 48.65c0-.89.52-1.62 1.14-1.61s1.12.73 1.12 1.63-.52 1.62-1.15 1.62-1.12-.74-1.11-1.64" fill="#ffd712"/><path d="m1 79.12c.86-.3 1.9.46 2.32 1.69s.06 2.47-.79 2.76-1.93-.47-2.35-1.7-.07-2.46.82-2.75" fill="#fff"/><path d="m9.29 92.06c.85-.29 1.89.47 2.31 1.7s.07 2.46-.79 2.75-1.89-.46-2.31-1.69-.07-2.47.79-2.76" fill="#3f3d56"/><path d="m10.08 69.72c.85-.29 1.89.47 2.31 1.7s.07 2.46-.79 2.76-1.89-.47-2.31-1.7-.07-2.46.79-2.76" fill="#ffd712"/><path d="m12.15 64.09c.74-.37 1.54-.26 1.8.25s-.13 1.23-.87 1.6a1.32 1.32 0 0 1 -1.79-.26c-.26-.51.13-1.22.86-1.59" fill="#e6e6e6"/><path d="m19.54 57.76c.73-.37 1.53-.26 1.79.25s-.13 1.23-.86 1.6-1.54.25-1.8-.26.13-1.22.87-1.59" fill="#3f3d56"/><path d="m12.74 81c.74-.37 1.54-.26 1.8.25s-.13 1.23-.87 1.6a1.32 1.32 0 0 1 -1.79-.26c-.26-.51.13-1.22.86-1.59" fill="#e6e6e6"/><path d="m6.07 76.08c.74-.37 1.54-.26 1.8.25s-.13 1.23-.86 1.6-1.54.25-1.8-.26.13-1.22.86-1.59" fill="#a3c7d1"/><path d="m4.7 88.37c.74-.37 1.54-.26 1.8.25s-.13 1.22-.87 1.59-1.53.26-1.79-.21.13-1.22.86-1.59" fill="#3f3d56"/><g fill="#ffd712"><path d="m54.57 39.46a.61.61 0 0 1 -.35-.11l-.82-.6a.41.41 0 0 0 -.47 0l-.83.6a.58.58 0 0 1 -.81-.13.57.57 0 0 1 -.08-.52l.31-1a.39.39 0 0 0 -.14-.45l-.83-.6a.58.58 0 0 1 -.13-.81.59.59 0 0 1 .47-.24h1a.41.41 0 0 0 .39-.28l.31-1a.59.59 0 0 1 1.11 0l.31 1a.41.41 0 0 0 .38.28h1a.59.59 0 0 1 .59.58.58.58 0 0 1 -.24.47l-.83.6a.41.41 0 0 0 -.15.45l.32 1a.57.57 0 0 1 -.21.65.6.6 0 0 1 -.34.11"/><path d="m62.92 39.46a.6.6 0 0 1 -.34-.11l-.82-.6a.41.41 0 0 0 -.47 0l-.83.6a.58.58 0 0 1 -.81-.13.57.57 0 0 1 -.08-.52l.31-1a.41.41 0 0 0 -.15-.45l-.82-.6a.58.58 0 0 1 -.13-.81.59.59 0 0 1 .47-.24h1a.39.39 0 0 0 .38-.28l.32-1a.58.58 0 0 1 .75-.32.55.55 0 0 1 .37.37l.32 1a.4.4 0 0 0 .38.28h1a.58.58 0 0 1 .34 1l-.82.6a.41.41 0 0 0 -.15.45l.32 1a.58.58 0 0 1 -.21.65.61.61 0 0 1 -.35.11"/><path d="m71.28 39.46a.6.6 0 0 1 -.34-.11l-.82-.6a.42.42 0 0 0 -.48 0l-.82.6a.58.58 0 0 1 -.81-.13.6.6 0 0 1 -.09-.52l.32-1a.41.41 0 0 0 -.15-.45l-.82-.6a.58.58 0 0 1 .34-1h1a.4.4 0 0 0 .38-.28l.32-1a.58.58 0 0 1 .73-.37.55.55 0 0 1 .37.37l.32 1a.4.4 0 0 0 .38.28h1a.58.58 0 0 1 .34 1l-.82.6a.41.41 0 0 0 -.15.45l.32 1a.58.58 0 0 1 -.21.65.61.61 0 0 1 -.35.11"/><path d="m79.64 39.46a.6.6 0 0 1 -.34-.11l-.83-.6a.41.41 0 0 0 -.47 0l-.82.6a.59.59 0 0 1 -.82-.13.57.57 0 0 1 -.08-.52l.32-1a.41.41 0 0 0 -.15-.45l-.82-.6a.58.58 0 0 1 .34-1h1a.4.4 0 0 0 .38-.28l.31-1a.59.59 0 0 1 .74-.37.57.57 0 0 1 .37.37l.32 1a.39.39 0 0 0 .38.28h1a.58.58 0 0 1 .34 1l-.82.6a.39.39 0 0 0 -.15.45l.31 1a.56.56 0 0 1 -.21.65.6.6 0 0 1 -.34.11"/><path d="m85.19 39.52a.63.63 0 0 1 -.37-.12.65.65 0 0 1 -.24-.72l.32-1a.33.33 0 0 0 -.12-.38l-.83-.6a.64.64 0 0 1 -.14-.9.65.65 0 0 1 .52-.26h1a.33.33 0 0 0 .32-.24l.32-1a.64.64 0 0 1 1.21 0l.32 1a.34.34 0 0 0 .33.24h1a.64.64 0 0 1 .37 1.16l-.82.6a.35.35 0 0 0 -.13.38l.32 1a.65.65 0 0 1 -.41.81.66.66 0 0 1 -.58-.09l-.82-.6a.35.35 0 0 0 -.41 0l-.82.6a.64.64 0 0 1 -.38.12m1.41-1.08a.63.63 0 0 1 .37.12l.83.6a.35.35 0 0 0 .48-.08.37.37 0 0 0 0-.31l-.32-1a.63.63 0 0 1 .23-.71l.83-.6a.34.34 0 0 0 .07-.48.32.32 0 0 0 -.27-.14h-1a.63.63 0 0 1 -.61-.45l-.32-1a.35.35 0 0 0 -.43-.23.36.36 0 0 0 -.22.23l-.32 1a.63.63 0 0 1 -.6.45h-1a.35.35 0 0 0 -.35.34.35.35 0 0 0 .14.28l.83.6a.63.63 0 0 1 .23.71l-.31 1a.35.35 0 0 0 .22.44.38.38 0 0 0 .31-.05l.82-.6a.64.64 0 0 1 .38-.12"/></g></svg>