<svg viewBox="0 0 155.23 177.3" xmlns="http://www.w3.org/2000/svg"><path d="m50.38 121.19a28.72 28.72 0 0 0 -20.61-8.42h-.31a29.44 29.44 0 0 1 -14.84-4l-.47-.28.38-.39a28.76 28.76 0 0 0 5.06-7.16 8.66 8.66 0 0 1 -7 2.26 8.86 8.86 0 0 1 -6.52-4.2c-2.77-4.46-6.07-10.83-6.07-15.69a29.53 29.53 0 0 1 9.63-21.78 18.43 18.43 0 0 0 6.08-13.71v-.37a41.85 41.85 0 0 1 1.23-10.09l.06-.36h.34a28.06 28.06 0 0 0 6.66-.52 22.07 22.07 0 0 1 -5.91-1.57l-.37-.15.13-.38c8.59-5.38 28.07-2.57 39.38-28.44 9.17-20.94 41.51 18.62 41.51 41.51 0 2.33-2.31 5.42-.58 7 18.71 16.65 5.84 27.37 1.73 38.15-1 2.56 1.13 5.37 1.13 8.14q0 .7 0 1.44v.74l-.62-.41a20.42 20.42 0 0 1 -3.41-2.8 18 18 0 0 1 -.58 15.54c-2 3.7-3.85 6.35-5.63 7.87a29.44 29.44 0 0 1 -40.33-1.93" fill="#e6e6e6"/><path d="m74.49 166.33-.19-4.45h-.07a2.73 2.73 0 0 0 -3.87 3.2c.64 2.16 1.07 4.49 2.23 6.38a8.67 8.67 0 0 0 6.34 4l2.69 1.65a14.44 14.44 0 0 0 -3.05-11.73 13.53 13.53 0 0 0 -2.57-2.38 36.26 36.26 0 0 1 -1.51 3.38" fill="#f2f2f2"/><g fill="#3f3d56"><path d="m81.7 176.85a.54.54 0 0 0 .52-.46 177.43 177.43 0 0 0 .25-37.19c-1.83-19.52-7.7-47.63-25.29-70.71a.53.53 0 1 0 -.85.64c17.44 22.87 23.27 50.79 25.08 70.17a176.41 176.41 0 0 1 -.24 36.95.53.53 0 0 0 .45.59h.08"/><path d="m67.34 101.05a.53.53 0 0 0 .31-1 73.27 73.27 0 0 0 -16.12-8.2c-8.89-3.26-22.42-6.21-36.34-1.78a.53.53 0 0 0 -.34.67.52.52 0 0 0 .66.34c13.64-4.34 26.92-1.44 35.66 1.76a72.44 72.44 0 0 1 15.83 8.16.5.5 0 0 0 .31.1"/><path d="m91.59 40.66a.53.53 0 0 0 -.93-.38 72.94 72.94 0 0 0 -9.35 15.49c-3.89 8.63-7.81 21.91-4.39 36.12a.53.53 0 1 0 1-.25c-3.35-13.92.51-26.95 4.33-35.44a71.5 71.5 0 0 1 9.22-15.2.53.53 0 0 0 .12-.3"/></g><path d="m90.87 68c.45 3.6 2.95 6.58 6.58 6.58a6.58 6.58 0 0 0 6.55-6.58c0-3.64-3-6.25-6.58-6.58-3.84-.36-7.15 2-6.58 6.58" fill="#26262b"/><path d="m100.5 173.95h2.51l1.19-9.66h-3.7z" fill="#ffb6b6"/><path d="m100.41 176.56h7.71v-.09a3 3 0 0 0 -3-3l-1.41-1.07-2.62 1.07h-.68z" fill="#2f2e41"/><path d="m90.63 173.95h2.51l1.19-9.66h-3.7z" fill="#ffb6b6"/><path d="m90.54 176.56h7.71v-.09a3 3 0 0 0 -3-3l-1.41-1.07-2.62 1.07h-.68z" fill="#2f2e41"/><path d="m109.12 113.42 1.78 6.07-2.09 25.72s1.07 1.61.31 1.61-1.73.36-1.12 1.32-1.48 4.41-1.48 4.41l-3 18.32-3.78-.06s-1.92-1.07-.84-2.15 1.83-1.08.82-2.1-1-.7-1-1.49-1-10.38 1.39-14.06l-.73-15-1.7 14.72-3.52 19.64h-3.64s-1.68-1.62-1.68-2.82 1-1.3.27-2-.77-11.61 1.51-17.67c0 0 1.29-3.38 0-4.54a1.7 1.7 0 0 1 0-2.49s2-.74 0-2.87 0-17.19 0-17.19-2.24-6.08 0-8.48 18.46 1.16 18.46 1.16" fill="#26262b"/><path d="m77.57 123.88 3.16-7.64 2.49 1.39-1.5 7.77a2.77 2.77 0 1 1 -4.15-1.52" fill="#ffb6b6"/><path d="m130.61 63.48-4.81 6.72-2.11-1.91 3.22-7.23a2.77 2.77 0 1 1 3.7 2.42" fill="#ffb6b6"/><path d="m109.6 114c3.12 4.84-12.56 11-18.58 8.51-1-.43-4.67-1.85-2.2-3.83s-.28-2.26-.35-3.54c0-.86.62-2.75-.07-2.67s-1.51-1.11 0-1.62 0-1 0-1.47c.15-5.3 4.22-13.73 4.22-13.73l-7.34 18.74s.06 3.24-.88 2.25-.86 2.22-.86 2.22-1.39 1-.59 1.51-.86 2.2-.86 2.2l-3.88-.28s.06-2.88.72-3.51a1.72 1.72 0 0 0 .34-1.64s1.72-1.53.57-2.76c-1.49-1.6 3.93-28.48 5.79-28.22a7.13 7.13 0 0 1 5.09-5.43l4.18-1.15.74-3h5.89l1 1.94 4.48 2c.84-1.19 1.47-2.44 4.93-2.85 0 0 9.31-8.47 8.85-9.13s1-2.21 1-2.21 1.23-.4.54-.62.62-.71.62-.71 1.22-.32.64-.74 1.92-.7 1.92-.7l3.23 2.64-.65 1.1s.39 1.51-.13 1-.61 1-.61 1a3 3 0 0 1 -1.84 2.27c-1.58.53-2.77 5.54-2.77 5.54a36.8 36.8 0 0 1 -13.23 11.19c2 2.32.09 25.74.09 25.74" fill="#2d6c83"/><path d="m98.18 63.28a5.84 5.84 0 1 1 -5.83 5.83 5.84 5.84 0 0 1 5.83-5.83" fill="#ffb6b6"/><path d="m92.14 69.75c.18 1.27 1.26 3 1 3s-2.05-5.23-.25-5.57a9.48 9.48 0 0 0 2.81-.56l-.17.16c.81.59 1.93.23 2.85-.16s2-.74 2.86-.15a4.51 4.51 0 0 1 1 1.54c.32.55.9 1.06 1.5.89a1.17 1.17 0 0 0 .76-1.17c0-.5-.65-1-.43-1.43.65-1.33.06-2.24-1.36-2.87l-1.55-.24a4.3 4.3 0 0 1 1-1 2.25 2.25 0 0 0 -.79-1 2.46 2.46 0 0 0 -1.4-.2l-3.2.17a5.55 5.55 0 0 0 -2.32.45 4.52 4.52 0 0 0 -1.87 2.23c-1 2-.8 3.64-.47 5.85" fill="#26262b"/><path d="m67.87 177.22 57.38.08a.3.3 0 1 0 0-.6l-57.38-.08a.3.3 0 1 0 0 .6" fill="#cacaca"/><path d="m43.32 150.4c.11-.72 1-1.19 2.09-1s1.81.87 1.7 1.59-1 1.2-2.08 1.05-1.81-.87-1.71-1.6" fill="#e6e6e6"/><path d="m55.77 149.19c.1-.73 1-1.19 2.08-1s1.81.86 1.7 1.59-1 1.19-2.08 1-1.81-.86-1.7-1.59" fill="#3f3d56"/><path d="m39.92 140.33c.1-.73 1-1.19 2.08-1s1.81.86 1.7 1.59-1 1.19-2.08 1-1.81-.86-1.7-1.59" fill="#a3c7d1"/><path d="m36.61 136.74c0-.67.39-1.21.85-1.2s.84.55.84 1.21-.39 1.21-.86 1.21-.83-.55-.83-1.22" fill="#e6e6e6"/><path d="m34.78 129.05c0-.66.39-1.2.85-1.2s.84.55.83 1.22-.38 1.2-.85 1.2-.84-.55-.83-1.22" fill="#3f3d56"/><path d="m49 142.58c0-.67.39-1.2.85-1.2s.84.55.83 1.21-.38 1.21-.85 1.21-.84-.55-.83-1.22" fill="#ffd712"/><path d="m43 145.58c0-.66.38-1.2.85-1.2s.83.55.83 1.22-.39 1.2-.85 1.2-.84-.55-.83-1.22" fill="#91b8c1"/><path d="m51.4 151.13c0-.66.38-1.2.85-1.2s.83.55.83 1.22-.39 1.2-.85 1.2-.84-.55-.83-1.22" fill="#3f3d56"/><path d="m139 111.43c.11-.73 1-1.19 2.08-1s1.81.86 1.7 1.59-1 1.19-2.08 1-1.81-.86-1.7-1.59" fill="#ffd712"/><path d="m151.43 110.21c.11-.72 1-1.19 2.09-1s1.81.87 1.7 1.6-1 1.19-2.09 1-1.8-.87-1.7-1.6" fill="#3f3d56"/><path d="m135.58 101.35c.11-.72 1-1.19 2.09-1s1.8.87 1.7 1.6-1 1.19-2.09 1-1.8-.87-1.7-1.6" fill="#83b0ba"/><path d="m132.28 97.77c0-.67.38-1.21.85-1.21s.84.55.83 1.22-.39 1.2-.85 1.2-.84-.55-.83-1.21" fill="#e6e6e6"/><path d="m130.44 90.08c0-.67.39-1.21.85-1.2s.84.54.84 1.21-.39 1.21-.85 1.2-.84-.54-.84-1.21" fill="#3f3d56"/><path d="m144.7 103.61c0-.67.39-1.21.86-1.21s.83.55.83 1.22-.39 1.21-.85 1.2-.84-.55-.84-1.21" fill="#e6e6e6"/><path d="m138.69 106.61c0-.67.39-1.21.85-1.2s.84.54.83 1.21-.38 1.21-.85 1.2-.83-.54-.83-1.21" fill="#a3c7d1"/><path d="m147.06 112.16c0-.67.39-1.21.85-1.2s.84.54.83 1.21-.38 1.21-.85 1.2-.83-.54-.83-1.21" fill="#3f3d56"/><path d="m92.68 39.3c.1-.73 1-1.19 2.08-1s1.81.86 1.7 1.59-1 1.19-2.08 1-1.81-.86-1.7-1.59" fill="#fff"/><path d="m105.12 38.09c.11-.73 1-1.2 2.08-1s1.81.86 1.71 1.59-1 1.19-2.09 1-1.8-.87-1.7-1.59" fill="#3f3d56"/><path d="m89.27 29.23c.1-.73 1-1.2 2.08-1.05s1.81.87 1.7 1.6-1.05 1.22-2.05 1.04-1.81-.87-1.7-1.59" fill="#a3c7d1"/><path d="m86 25.64c0-.67.39-1.21.85-1.21s.84.55.84 1.22-.39 1.21-.85 1.2-.84-.55-.84-1.21" fill="#e6e6e6"/><path d="m84.13 18c0-.67.39-1.21.85-1.2s.84.55.83 1.21-.38 1.21-.85 1.21-.83-.55-.83-1.22" fill="#3f3d56"/><path d="m98.39 31.48c0-.67.39-1.21.85-1.2s.84.54.83 1.21-.38 1.21-.85 1.2-.84-.54-.83-1.21" fill="#ffd712"/><path d="m92.38 34.48c0-.67.38-1.21.85-1.2s.83.55.83 1.21-.39 1.21-.85 1.21-.84-.55-.83-1.22" fill="#a3c7d1"/><path d="m100.75 40c0-.67.38-1.21.85-1.2s.84.55.83 1.21-.39 1.21-.85 1.21-.84-.55-.83-1.22" fill="#3f3d56"/></svg>