<svg width="24" height="24" viewBox="0 0 28 28" fill="none" xmlns="http://www.w3.org/2000/svg">
<g clip-path="url(#clip0_70_4148)">
<path d="M14 2.62402C11.9662 2.62384 9.96952 3.16894 8.21795 4.20257C6.46637 5.2362 5.02396 6.72054 4.04093 8.50101C3.0579 10.2815 2.57021 12.2929 2.62866 14.3259C2.68711 16.3589 3.28956 18.339 4.37325 20.0601C5.45695 21.7811 6.98226 23.1801 8.79033 24.1114C10.5984 25.0427 12.6231 25.4722 14.6535 25.3552C16.684 25.2381 18.6459 24.5789 20.335 23.446C22.0241 22.3131 23.3786 20.7481 24.2573 18.9139C23.6352 19.1444 22.9759 19.258 22.3125 19.249C20.3124 19.249 19.1927 18.3735 18.6056 17.6389C18.4689 17.4674 18.3454 17.2857 18.2362 17.0954C17.6107 17.9523 16.7402 18.5997 15.7396 18.9522C14.7389 19.3047 13.6549 19.3457 12.6304 19.07C11.606 18.7943 10.689 18.2147 10.0005 17.4075C9.31192 16.6004 8.88401 15.6036 8.77313 14.5485C8.66226 13.4933 8.87361 12.4294 9.37936 11.4967C9.8851 10.5641 10.6615 9.80655 11.6063 9.32388C12.5511 8.84121 13.6199 8.65606 14.672 8.79284C15.7241 8.92961 16.71 9.38188 17.5 10.0901V9.62402C17.5 9.39196 17.5922 9.1694 17.7563 9.0053C17.9204 8.84121 18.1429 8.74902 18.375 8.74902C18.6071 8.74902 18.8296 8.84121 18.9937 9.0053C19.1578 9.1694 19.25 9.39196 19.25 9.62402V13.999C19.25 15.5957 19.7813 17.499 22.3125 17.499C24.7566 17.499 25.3359 15.7246 25.3729 14.165C25.3737 14.1097 25.375 14.0545 25.375 13.999C25.3716 10.9832 24.1721 8.09194 22.0396 5.95945C19.9071 3.82697 17.0158 2.62744 14 2.62402Z" fill="#353535"/>
<path d="M14 17.499C15.933 17.499 17.5 15.932 17.5 13.999C17.5 12.066 15.933 10.499 14 10.499C12.067 10.499 10.5 12.066 10.5 13.999C10.5 15.932 12.067 17.499 14 17.499Z" fill="#353535"/>
</g>
<defs>
<clipPath id="clip0_70_4148">
<rect width="28" height="28" fill="white"/>
</clipPath>
</defs>
</svg>
