<svg width="22" height="28" viewBox="0 0 22 28" fill="none" xmlns="http://www.w3.org/2000/svg">
<path d="M15.2274 17.8885C15.1743 17.7236 15.0702 17.5799 14.9301 17.4781C14.79 17.3763 14.6212 17.3217 14.448 17.3221H12.4484L11.8225 15.4111C11.7688 15.247 11.6646 15.1041 11.5246 15.003C11.3847 14.9018 11.2164 14.8476 11.0437 14.8481C10.8712 14.8479 10.703 14.9023 10.5633 15.0035C10.4237 15.1048 10.3196 15.2476 10.2661 15.4116L9.63905 17.325H7.66972C7.49574 17.3232 7.32575 17.377 7.18451 17.4786C7.04327 17.5802 6.93817 17.7243 6.88452 17.8898C6.83087 18.0553 6.83148 18.2336 6.88626 18.3987C6.94104 18.5639 7.04712 18.7072 7.18905 18.8078L8.80197 19.9745L8.17313 21.8616C8.11614 22.0264 8.11344 22.2052 8.16542 22.3717C8.2174 22.5383 8.32133 22.6837 8.462 22.7869C8.60266 22.8901 8.77266 22.9455 8.9471 22.945C9.12154 22.9446 9.29126 22.8883 9.43138 22.7844L11.0443 21.6177L12.666 22.792C12.8056 22.8952 12.9745 22.9513 13.1482 22.952C13.3218 22.9527 13.4912 22.898 13.6317 22.7959C13.7722 22.6938 13.8764 22.5496 13.9293 22.3842C13.9823 22.2188 13.9811 22.0408 13.926 21.8761L13.3117 19.978L14.9287 18.8072C15.0698 18.7058 15.1748 18.562 15.2285 18.3968C15.2822 18.2315 15.2818 18.0535 15.2274 17.8885ZM12.4239 19.1776C12.283 19.2788 12.178 19.4223 12.1241 19.5871C12.0702 19.752 12.0702 19.9298 12.124 20.0946L12.4886 21.2205L11.5244 20.5205C11.3848 20.4189 11.2166 20.3643 11.044 20.3643C10.8714 20.3643 10.7032 20.4189 10.5636 20.5205L9.62155 21.2024L9.99021 20.097C10.0454 19.9317 10.0464 19.7531 9.99283 19.5873C9.93931 19.4215 9.83414 19.2771 9.69272 19.1753L8.7413 18.4916H9.89163C10.0644 18.4921 10.2329 18.4377 10.3728 18.3364C10.5128 18.235 10.6169 18.0919 10.6704 17.9276L11.0449 16.7848L11.4194 17.9281C11.4729 18.0923 11.577 18.2352 11.7168 18.3364C11.8566 18.4377 12.0249 18.492 12.1975 18.4916H13.3765L12.4239 19.1776Z" fill="#D9D9D9"/>
<path d="M4.02881 19.1286C4.02892 20.437 4.39817 21.7188 5.09413 22.8267C5.79008 23.9346 6.78451 24.8237 7.96312 25.3918C9.14173 25.9599 10.4567 26.1839 11.7569 26.0381C13.0571 25.8923 14.2899 25.3826 15.3134 24.5676L14.586 23.6553C13.5642 24.4752 12.2921 24.9197 10.9821 24.9147C9.83776 24.9147 8.71908 24.5754 7.76757 23.9396C6.81605 23.3038 6.07443 22.4002 5.6365 21.3429C5.19856 20.2856 5.08398 19.1222 5.30724 17.9998C5.53049 16.8774 6.08156 15.8465 6.89076 15.0373C7.69996 14.2281 8.73094 13.677 9.85333 13.4537C10.9757 13.2305 12.1391 13.3451 13.1964 13.783C14.2536 14.2209 15.1573 14.9626 15.7931 15.9141C16.4289 16.8656 16.7682 17.9843 16.7682 19.1286C16.7735 20.4536 16.3187 21.7394 15.4814 22.7663C15.4301 22.8305 15.3764 22.8935 15.3221 22.9547L16.1971 23.7265C16.2625 23.6522 16.3263 23.577 16.3885 23.5007C17.0878 22.6357 17.5693 21.6156 17.7927 20.5259C18.016 19.4363 17.9747 18.3089 17.6722 17.2385C17.3696 16.1682 16.8147 15.186 16.0539 14.3745C15.2932 13.563 14.3489 12.9459 13.3002 12.575C12.2516 12.204 11.1292 12.0901 10.0275 12.2427C8.92567 12.3954 7.87658 12.8101 6.96828 13.4522C6.05998 14.0942 5.31898 14.9448 4.80749 15.9326C4.29601 16.9203 4.02898 18.0163 4.02881 19.1286V19.1286Z" fill="#D9D9D9"/>
<path d="M21.2132 0.966583C21.2867 0.882167 21.3345 0.778362 21.3506 0.667562C21.3668 0.556761 21.3507 0.443649 21.3044 0.341731C21.258 0.239813 21.1832 0.153396 21.0891 0.0927998C20.9949 0.0322033 20.8853 -1.22497e-05 20.7733 3.4941e-09H15.4067C15.3233 -9.11679e-06 15.2409 0.0178446 15.1651 0.0523586C15.0892 0.0868726 15.0216 0.137245 14.9668 0.200083L7.85776 8.35567L7.86243 8.35975C7.76856 8.46391 7.71588 8.59871 7.71426 8.73892V10.8885C5.79483 11.6486 4.20058 13.0544 3.20613 14.8635C2.21169 16.6727 1.8793 18.772 2.26622 20.7999C2.65315 22.8278 3.73517 24.6573 5.3259 25.9732C6.91662 27.2891 8.91646 28.009 10.9809 28.009C13.0454 28.009 15.0452 27.2891 16.636 25.9732C18.2267 24.6573 19.3087 22.8278 19.6956 20.7999C20.0826 18.772 19.7502 16.6727 18.7557 14.8635C17.7613 13.0544 16.167 11.6486 14.2476 10.8885V8.95767L21.2132 0.966583ZM15.6703 1.16667H19.4912L13.4006 8.15558H9.57976L15.6703 1.16667ZM18.6868 19.1287C18.6868 20.6526 18.2348 22.1424 17.3882 23.4095C16.5415 24.6767 15.338 25.6643 13.93 26.2474C12.5221 26.8306 10.9728 26.9832 9.47807 26.6858C7.98339 26.3885 6.61044 25.6546 5.53287 24.5769C4.45529 23.4992 3.72148 22.1262 3.42424 20.6315C3.127 19.1368 3.27967 17.5875 3.86295 16.1796C4.44623 14.7716 5.43393 13.5683 6.70112 12.7217C7.96832 11.8751 9.45811 11.4233 10.9821 11.4234C13.0249 11.4257 14.9833 12.2383 16.4278 13.6828C17.8722 15.1274 18.6846 17.0859 18.6868 19.1287V19.1287ZM10.9821 10.2567C10.2741 10.2598 9.5691 10.3477 8.88209 10.5187V9.32225H13.0821V10.5187C12.3951 10.3477 11.69 10.2597 10.9821 10.2567V10.2567ZM7.88459 7.29167L2.51442 1.16667H6.34751L9.82709 4.78333L10.6677 3.97308L7.01601 0.179083C6.96157 0.122453 6.89626 0.0774009 6.82399 0.0466278C6.75172 0.0158548 6.67398 -4.89916e-06 6.59542 3.4941e-09H1.22876C1.11667 1.60249e-05 1.00695 0.0323278 0.912742 0.0930693C0.818533 0.153811 0.74382 0.240409 0.697542 0.342503C0.651265 0.444597 0.635382 0.557863 0.651795 0.668748C0.668209 0.779632 0.716222 0.88344 0.790092 0.96775L7.00726 8.05992L7.88459 7.29167Z" fill="#D9D9D9"/>
</svg>
