<svg viewBox="0 0 459 328.89" xmlns="http://www.w3.org/2000/svg"><path d="m320.24 198.29c-.67.85-1.16 1.48-1.67 2.1a14.51 14.51 0 0 0 -3.4 9.51 15.46 15.46 0 0 1 -15.81 15.71c-.86 0-1.72 0-2.58 0s-1.1-.32-1.1-1.07c0-4.22-.19-8.45.1-12.64a15.19 15.19 0 0 1 14.22-13.8c3.05-.17 6.11-.06 9.16 0a6.39 6.39 0 0 1 1.08.19z" fill="#f48500"/><path d="m202.31 138.44v42.08q.06 24.87 21.13 38.13c1.3.82 2.9 1.69 3.51 3.18.7 1.71-.21 3.78-2.26 3.72-10.84-.33-22 .65-32.45-1.65-20-4.4-33-22.29-33-42.77q-.14-41.06 0-82.12a49.12 49.12 0 0 0 -4.64-21.92 41 41 0 0 0 -14.11-15.74 52.3 52.3 0 0 0 -5.32-3.1c-1.7-.87-4.94-1.46-5-3.74 0-1.15.52-2.08 1.69-2.09 10.07-.08 20.18-.47 30.21.16 22.9 1.44 40.06 20 40.24 43 .1 14.26 0 28.56 0 42.86z" fill="#f48500"/><path d="m231.9 225.55h19.31c21.28 0 38.84-16.48 38.84-36.74 0-17.9-14-33.09-32.35-36.06a29 29 0 0 0 17.49-26.28c0-16-13.71-29.18-30.19-29.18h-24.87v1.08a2.3 2.3 0 0 0 2.3 2.3h.89c14.79 0 26.88 11.69 26.88 25.8s-12.09 25.67-26.88 25.67h-6.48v3.37h13.37c19.58 0 35.39 15 35.39 33.3 0 17-13.74 30.68-31.39 32.7a2.86 2.86 0 0 0 -2.34 4z" fill="#686867"/><g fill="#4f4d4a"><path d="m173.23 272.42v3.41h-22.73v-34.14h3.42v30.73z"/><path d="m176.21 251.44h3.41v24.39h-3.41z"/><path d="m200.2 275.83h-4.39l-9.26-12.29v12.29h-3.42l-.05-34.14h3.42v17.8l9.07-8.05h4l-10.49 9.9z"/><path d="m201.38 263.59a9.56 9.56 0 0 0 .78 3.87 9.95 9.95 0 0 0 5.34 5.35 10 10 0 0 0 7.75 0 10.07 10.07 0 0 0 3.2-2.15 9.48 9.48 0 0 0 1.65-2.24h3.76l-.15.39a13.17 13.17 0 0 1 -2.85 4.26 13.51 13.51 0 0 1 -4.27 2.88 13.48 13.48 0 0 1 -10.43 0 13.52 13.52 0 0 1 -7.15-7.14 13.5 13.5 0 0 1 0-10.44 13.49 13.49 0 0 1 7.15-7.15 13.48 13.48 0 0 1 10.43 0 13.51 13.51 0 0 1 4.27 2.88 13.11 13.11 0 0 1 2.85 4.27 12.34 12.34 0 0 1 1 4.19h-23.29c-.03.36-.04.7-.04 1.03zm17.07-7.07a10.07 10.07 0 0 0 -3.2-2.15 10 10 0 0 0 -7.75 0 10.09 10.09 0 0 0 -5.1 4.78h17.9a10.85 10.85 0 0 0 -1.85-2.63z"/><path d="m251.46 273.34c-2.12 1.66-5 2.49-8.54 2.49h-11.17v-34.14h9.17c3.51 0 6.28.81 8.29 2.44a8.38 8.38 0 0 1 2.93 6.78 9.28 9.28 0 0 1 -.75 3.85 8.94 8.94 0 0 1 -2.18 2.93.77.77 0 0 1 -.19.14 9.81 9.81 0 0 1 2.44 1.37 9.93 9.93 0 0 1 2.29 3.09 9.56 9.56 0 0 1 .78 4 8.87 8.87 0 0 1 -3.07 7.05zm-4.93-18.14a5.19 5.19 0 0 0 1.95-4.29 5.45 5.45 0 0 0 -1.95-4.35 9 9 0 0 0 -5.53-1.56h-5.85v11.76h7.31a6 6 0 0 0 4.07-1.56zm2.15 15.6a5.63 5.63 0 0 0 2.1-4.51 5.55 5.55 0 0 0 -2.1-4.6c-1.27-1.08-3.17-1.61-5.71-1.61h-7.8v12.34h7.83q3.78 0 5.68-1.62z"/><path d="m257.36 251.44h3.41v24.39h-3.41z"/><path d="m264.28 251.44h3.37v4.64a2.67 2.67 0 0 1 .54-.78 13.47 13.47 0 0 1 4.29-2.91 13 13 0 0 1 5.22-1v3.42a9.78 9.78 0 0 0 -3.88.78 10 10 0 0 0 -3.19 2.15 10 10 0 0 0 -2.93 7.07v11.07h-3.37z"/><path d="m303.89 263.59a13.09 13.09 0 0 1 -1.05 5.22 13.55 13.55 0 0 1 -7.14 7.19 13.5 13.5 0 0 1 -10.44 0 13.52 13.52 0 0 1 -7.15-7.14 13.5 13.5 0 0 1 0-10.44 13.49 13.49 0 0 1 7.15-7.15 13 13 0 0 1 5.22-1.05 12.56 12.56 0 0 1 5.7 1.49 10.42 10.42 0 0 1 4.3 3.68v-13.7h3.41zm-3.41 0a9.78 9.78 0 0 0 -.78-3.88 10 10 0 0 0 -5.35-5.34 10 10 0 0 0 -7.75 0 10 10 0 0 0 -5.34 5.34 10 10 0 0 0 0 7.75 9.95 9.95 0 0 0 5.34 5.35 10 10 0 0 0 7.75 0 10 10 0 0 0 5.35-5.35 9.73 9.73 0 0 0 .78-3.87z"/><circle cx="177.91" cy="246.55" r="2.35"/><circle cx="258.94" cy="246.55" r="2.35"/></g></svg>