<svg viewBox="0 0 480.07 499.02" xmlns="http://www.w3.org/2000/svg"><g fill="#038690"><path d="m229.4 246.21.02-.01.04.08z"/><path d="m229.4 246.21v.08h-.06s0 0 0 0"/><path d="m227.86 245.09a2.71 2.71 0 0 1 3.11 2.31c-1.72.14-2.85-.47-3.13-2.25"/></g><path d="m284.88 95.5c-1.68.06-3.34.13-5 .21 3-.21 4.86-.21 5-.21" fill="#f9f9f9"/><path d="m272.18 96.27c2.47-.24 5-.41 7.59-.55a150.48 150.48 0 0 0 -27 4.45c-27.28 7.06-64 25-74.49 70.55a8 8 0 0 0 -2.73 3.45 6.54 6.54 0 0 0 -.24.75 6.88 6.88 0 0 0 -.22 1.52 66.55 66.55 0 0 1 13-37.65 83.25 83.25 0 0 1 14-14.89 1.07 1.07 0 0 1 .23-.2 103.18 103.18 0 0 1 28.68-16.88c6.24-2.34 12.89-4.5 19.77-6.33a165.14 165.14 0 0 1 21.46-4.22" fill="#cdd2d3"/><path d="m279.91 95.71c3.06-.21 4.86-.21 5-.21-1.68.06-3.34.13-5 .21" fill="#cdd2d3"/><path d="m329.63 106.18c-3.28-.47-7.43-3-11.53-5.78a63.75 63.75 0 0 1 11.53 5.78" fill="#cdd2d3"/><path d="m125 499h230a125 125 0 0 0 125-125v-374h-355a125 125 0 0 0 -125 125v249a125 125 0 0 0 125 125" fill="#438099"/><path d="m286 335.38a103.57 103.57 0 0 1 -7.6 67.38c-5.9 12.11-30.43 49.12-46.5 37.74-5.93-4.22-10.92-9.44-15.83-14.45-52.64-53.77-109.22-126.73-107.41-206.05 1.59-69.47 49.42-133.17 120.34-142.29 17.43-2.24 35.44.53 52.2 5.51a176.33 176.33 0 0 1 25.77 10c3.09 1.5 7.09 4.46 11.13 7.18-14.2-5.43-30.16-6.13-45.92-4.13 2.47-.24 5-.41 7.59-.55a150.48 150.48 0 0 0 -27 4.45l-2 .32a77.42 77.42 0 0 0 -8.52 1.93 106.28 106.28 0 0 0 -39.87 21.28 1.07 1.07 0 0 0 -.23.2 81.17 81.17 0 0 0 -19.31 24.31s0 .08 0 .11c-.92 1.78-1.75 3.61-2.51 5.48a68.32 68.32 0 0 0 -4.39 15.48 53.15 53.15 0 0 0 -.58 5.64c-1.45 28.54 20.25 48.86 42.45 68.67 29 25.86 59.29 52.18 68.31 91.79" fill="#f9f9f9"/><path d="m383.16 181.31c-7.65-29-24.57-52.24-47.75-71a63 63 0 0 0 -5.78-4.13c-3.28-.47-7.43-3-11.53-5.78-14.2-5.43-30.16-6.12-45.92-4.13 2.47-.24 5-.41 7.59-.55a150.48 150.48 0 0 0 -27 4.45c-27.28 7.06-64 25-74.49 70.55 4.58-3.56 13.66-5.17 24.37-5.54 33.35-1.18 67.07 15.82 86.67 42.75 10.21 14 15.75 30.92 26.36 44.69 11.77 15.25 36.44 27.5 54.51 13.22 22.67-22.25 20.31-56.67 13-84.53m-98.31-85.81c-1.68.06-3.34.13-5 .21 3-.21 4.86-.21 5-.21" fill="#cdd2d3"/><path d="m378 319c-3.76-2.22-7.55-4.38-11.34-6.58l.11-.16c-7.58-4.39-15.11-8.83-22.71-13.15-2.91-1.64-4.74-3.81-4-7.24.83-3.67 3.6-4.77 7.07-4.8 6.75 0 13.95.66 20.53-1.17 10.61-2.94 14.71-13.75 19.87-22.43 1.54-2.64 3.74-4.11 6.83-3.29a5.94 5.94 0 0 1 4.79 6.29c.1 21.45.36 42.93.33 64.34-7.75-2.93-14.44-7.63-21.5-11.81" fill="#cdd2d3"/><path d="m272.18 96.27c2.47-.24 5-.41 7.59-.55a150.48 150.48 0 0 0 -27 4.45c-27.28 7.06-64 25-74.49 70.55a108.27 108.27 0 0 0 -2 11.66l-1-3.12a43.12 43.12 0 0 1 .26-5.09 80.33 80.33 0 0 1 7.24-25.85s0-.08 0-.11a79.55 79.55 0 0 1 5.27-9.42c12.35-18.94 36.59-38.27 84.12-42.52" fill="#438099"/><path d="m284.88 95.5c-1.68.06-3.34.13-5 .21 3-.21 4.86-.21 5-.21" fill="#438099"/></svg>