<svg xmlns="http://www.w3.org/2000/svg" viewBox="0 0 84.18 105.83"><defs><style>.cls-1{fill:#f9f9f9;}.cls-2{fill:#cdd2d3;}</style></defs><title>logo_white</title><g id="Layer_2" data-name="Layer 2"><g id="Layer_1-2" data-name="Layer 1"><path class="cls-1" d="M47.57,5.57c.49-.05,1-.08,1.49-.1A44.34,44.34,0,0,0,41.6,6.74l-.47.08a22.84,22.84,0,0,0-2.48.56,30.85,30.85,0,0,0-10.41,5.27c-.25.18-.5.38-.75.58s-.5.4-.75.63-.53.48-.79.73a23.1,23.1,0,0,0-4.48,6,16,16,0,0,0-.75,1.63,20.69,20.69,0,0,0-1.28,4.48,15.31,15.31,0,0,0-.15,1.61,11.86,11.86,0,0,0,0,1.19v.09c.24,7.61,6.2,13.17,12.3,18.62C40,55.71,48.72,63.33,51.33,74.8a29.92,29.92,0,0,1-2.2,19.49c-1.71,3.51-8.81,14.21-13.45,10.92A34.51,34.51,0,0,1,31.1,101C15.86,85.47-.51,64.35,0,41.39.47,21.29,14.31,2.86,34.83.23a36.9,36.9,0,0,1,15.11,1.6A50,50,0,0,1,57.4,4.72,35.62,35.62,0,0,1,60.62,6.8a27.36,27.36,0,0,0-13-1.23"/><path class="cls-2" d="M79.45,30.21c-2.21-8.39-7.12-15.12-13.83-20.55-.54-.43-1.1-.83-1.67-1.2a17,17,0,0,0-3.31-1.64s0,0,0,0a27.11,27.11,0,0,0-13-1.24c.49-.05,1-.08,1.49-.1A44.34,44.34,0,0,0,41.6,6.74C33.68,8.83,23.16,14,20.14,27.14c1.33-1,4-1.49,7.05-1.6a30.53,30.53,0,0,1,25.1,12.37c3,4.06,4.56,8.94,7.63,12.94,3.4,4.4,10.54,7.95,15.77,3.82,6.57-6.44,5.88-16.4,3.76-24.46M50.64,5.38l-1.07,0c.46,0,.84,0,1.07,0"/><path class="cls-2" d="M78,70.05l-3.28-1.9,0-.05c-2.19-1.26-4.37-2.55-6.57-3.8A1.84,1.84,0,0,1,67,62.2c.24-1.06,1-1.38,2-1.38A23.12,23.12,0,0,0,75,60.48c3.07-.86,4.26-4,5.75-6.49a1.68,1.68,0,0,1,2-1,1.72,1.72,0,0,1,1.39,1.82c0,6.21.1,12.43.09,18.62A40.86,40.86,0,0,1,78,70.05"/></g></g></svg>