<svg xmlns="http://www.w3.org/2000/svg" viewBox="0 0 60.62 105.83"><defs><style>.cls-1{fill:#f9f9f9;}</style></defs><title>main_shape_1xxxhdpi</title><g id="Layer_2" data-name="Layer 2"><g id="Layer_1-2" data-name="Layer 1"><path class="cls-1" d="M47.57,5.57c.49-.05,1-.08,1.49-.1A44.34,44.34,0,0,0,41.6,6.74l-.47.08a22.84,22.84,0,0,0-2.48.56,30.85,30.85,0,0,0-10.41,5.27c-.25.18-.5.38-.75.58s-.5.4-.75.63-.53.48-.79.73a23.1,23.1,0,0,0-4.48,6,16,16,0,0,0-.75,1.63,20.69,20.69,0,0,0-1.28,4.48,15.31,15.31,0,0,0-.15,1.61,11.86,11.86,0,0,0,0,1.19v.09c.24,7.61,6.2,13.17,12.3,18.62C40,55.71,48.72,63.33,51.33,74.8a29.92,29.92,0,0,1-2.2,19.49c-1.71,3.51-8.81,14.21-13.45,10.92A34.51,34.51,0,0,1,31.1,101C15.86,85.47-.51,64.35,0,41.39.47,21.29,14.31,2.86,34.83.23a36.9,36.9,0,0,1,15.11,1.6A50,50,0,0,1,57.4,4.72,35.62,35.62,0,0,1,60.62,6.8a27.36,27.36,0,0,0-13-1.23"/></g></g></svg>