<svg viewBox="0 0 459 328.89" xmlns="http://www.w3.org/2000/svg"><g fill="#023e5e"><path d="m239.44 172-11.61-31.92h5.1l8.46 23.23 8.47-23.23h5.06l8.51 23.23 8.42-23.23h5.15l-11.62 31.92h-3.95l-9-24.83-9 24.83z"/><path d="m280.89 172v-24.2h4.79v24.2z"/><path d="m290.6 172v-31.91h26.12a5.68 5.68 0 0 1 2.92.78 5.77 5.77 0 0 1 2.11 2.08 5.64 5.64 0 0 1 .77 2.9v20.4a5.64 5.64 0 0 1 -.77 2.9 5.77 5.77 0 0 1 -2.11 2.08 5.68 5.68 0 0 1 -2.92.78zm5.86-4.79h20.17a1 1 0 0 0 .75-.33 1.09 1.09 0 0 0 .31-.78v-20.1a1.09 1.09 0 0 0 -.31-.78 1 1 0 0 0 -.75-.33h-20.17a1 1 0 0 0 -.76.33 1.09 1.09 0 0 0 -.31.78v20.12a1.09 1.09 0 0 0 .31.78 1 1 0 0 0 .76.32z"/><path d="m327.58 172v-31.91h28.72v4.79h-23.89v8.78h23.89v4.78h-23.89v8.77h23.89v4.79z"/><path d="m239.69 219.11a5.55 5.55 0 0 1 -2.9-.78 5.84 5.84 0 0 1 -2.08-2.08 5.56 5.56 0 0 1 -.78-2.91v-1.86h4.79v1.73a1.13 1.13 0 0 0 1.11 1.11h20.17a1 1 0 0 0 .76-.33 1.13 1.13 0 0 0 .31-.78v-6.56a1.11 1.11 0 0 0 -.31-.8 1 1 0 0 0 -.76-.31h-20.31a5.64 5.64 0 0 1 -2.9-.77 5.87 5.87 0 0 1 -2.08-2.09 5.55 5.55 0 0 1 -.78-2.9v-6.78a5.55 5.55 0 0 1 .78-2.9 5.87 5.87 0 0 1 2.08-2.09 5.64 5.64 0 0 1 2.9-.77h20.4a5.64 5.64 0 0 1 2.9.77 5.87 5.87 0 0 1 2.08 2.09 5.55 5.55 0 0 1 .78 2.9v1.86h-4.85v-1.73a1.12 1.12 0 0 0 -.31-.77 1 1 0 0 0 -.69-.36h-20.17a1.08 1.08 0 0 0 -.78.34 1.06 1.06 0 0 0 -.33.77v6.56a1 1 0 0 0 .33.8 1.09 1.09 0 0 0 .78.31h20.26a5.55 5.55 0 0 1 2.9.78 5.84 5.84 0 0 1 2.08 2.08 5.56 5.56 0 0 1 .78 2.91v6.82a5.56 5.56 0 0 1 -.78 2.91 5.84 5.84 0 0 1 -2.08 2.08 5.55 5.55 0 0 1 -2.9.78z"/><path d="m270.64 219.11v-31.88h26.11a5.63 5.63 0 0 1 2.93.8 6 6 0 0 1 2.1 2.11 5.45 5.45 0 0 1 .78 2.85v9a5.55 5.55 0 0 1 -.78 2.9 5.84 5.84 0 0 1 -2.1 2.09 5.7 5.7 0 0 1 -2.93.77h-21.32v11.35zm5.89-16.23h20.13a1 1 0 0 0 .76-.31 1.06 1.06 0 0 0 .31-.75v-8.69a1.13 1.13 0 0 0 -.31-.78 1 1 0 0 0 -.76-.33h-20.13a1.13 1.13 0 0 0 -1.1 1.11v8.69a1 1 0 0 0 .33.75 1.08 1.08 0 0 0 .77.31z"/><path d="m306.24 193a5.64 5.64 0 0 1 .77-2.9 5.89 5.89 0 0 1 2.09-2.1 5.64 5.64 0 0 1 2.9-.77h20.35a5.74 5.74 0 0 1 2.92.77 5.87 5.87 0 0 1 2.11 2.09 5.55 5.55 0 0 1 .78 2.9v26.16h-4.84v-11.22h-22.32v11.18h-4.78zm27.08 10.2v-10.12a1.08 1.08 0 0 0 -.31-.77 1 1 0 0 0 -.75-.34h-20.13a1.07 1.07 0 0 0 -.77.34 1 1 0 0 0 -.34.77v10.07z"/><path d="m349 219.11a5.55 5.55 0 0 1 -2.9-.78 5.84 5.84 0 0 1 -2.08-2.08 5.56 5.56 0 0 1 -.78-2.91v-20.34a5.55 5.55 0 0 1 .78-2.9 5.87 5.87 0 0 1 2.08-2.09 5.64 5.64 0 0 1 2.9-.77h26v4.76h-25.4a1.59 1.59 0 0 0 -1.64 1.65v19.06a1.59 1.59 0 0 0 1.64 1.64h25.4v4.79z"/></g><path d="m280.89 140.09h4.83v4.83h-4.83z" fill="#f7a810"/><path d="m384.31 187.19h15.44v4.74h-15.44z" fill="#f7a810"/><path d="m384.36 200.8h20.02v4.79h-20.02z" fill="#f7a810"/><path d="m384.21 214.32h24.79v4.79h-24.79z" fill="#f7a810"/><path d="m384.56 219.11h-4.82v-31.92h4.87v4.78 27.14z" fill="#023e5e"/><path d="m213.39 140.6v78.06l-67.3 40.19-66.79-40.57v-58.36l17.2 9.09-.02 41.33.02.99 49.59 28.55 49.75-27.96-.02-.21.05-53.73-35.46 20.02v-20.56l42.25-23.14z" fill="#023e5e"/><path d="m132.02 178 .03-20.67-29.3-14.54 43.34-26.45 35.95 19.39 14.16-8.26-50.11-28.54-64.94 39.9-2.08 1.46v10.68z" fill="#023e5e"/><path d="m154.65 235.07-8.64 5.4-8.21-5.39v-77.71l8.21-5.87 8.64 5.87z" fill="#023e5e"/></svg>